<?xml version="1.0" encoding="UTF-8" standalone="no"?>
<!DOCTYPE svg PUBLIC "-//W3C//DTD SVG 1.1//EN"
 "http://www.w3.org/Graphics/SVG/1.1/DTD/svg11.dtd">
<!-- Generated by graphviz version 2.38.0 (20140413.2041)
 -->
<!-- Title: g Pages: 1 -->
<svg width="1788pt" height="734pt"
 viewBox="0.00 0.00 1788.00 734.00" xmlns="http://www.w3.org/2000/svg" xmlns:xlink="http://www.w3.org/1999/xlink">
<g id="graph0" class="graph" transform="scale(1 1) rotate(0) translate(4 730)">
<title>g</title>
<polygon fill="white" stroke="none" points="-4,4 -4,-730 1784,-730 1784,4 -4,4"/>
<g id="clust1" class="cluster"><title>cluster_1067759703</title>
<polygon fill="#ececec" stroke="black" points="8,-31 8,-718 486,-718 486,-31 8,-31"/>
<text text-anchor="middle" x="71" y="-702.8" font-family="Times,serif" font-size="14.00">EmbaralharPalavras</text>
</g>
<g id="clust2" class="cluster"><title>cluster_136677366</title>
<polygon fill="#ececec" stroke="black" points="1125,-8 1125,-141 1389,-141 1389,-8 1125,-8"/>
<text text-anchor="middle" x="1171.5" y="-125.8" font-family="Times,serif" font-size="14.00">FontePalavras</text>
</g>
<g id="clust3" class="cluster"><title>cluster_191926286</title>
<polygon fill="#ececec" stroke="black" points="887,-631 887,-718 1035,-718 1035,-631 887,-631"/>
<text text-anchor="middle" x="919.5" y="-702.8" font-family="Times,serif" font-size="14.00">Principal</text>
</g>
<g id="clust4" class="cluster"><title>cluster_2314509</title>
<polygon fill="#ececec" stroke="black" points="494,-189 494,-598 1772,-598 1772,-189 494,-189"/>
<text text-anchor="middle" x="515" y="-582.8" font-family="Times,serif" font-size="14.00">Jogo</text>
</g>
<!-- EmbaralharAleatório1067759703 -->
<g id="node1" class="node"><title>EmbaralharAleatório1067759703</title>
<polygon fill="#ffffff" stroke="none" points="350,-687 136,-687 136,-639 350,-639 350,-687"/>
<text text-anchor="start" x="141" y="-670.8" font-family="Times,serif" font-size="14.00">(C)EmbaralharAleatório</text>
<text text-anchor="start" x="141" y="-647.8" font-family="Times,serif" font-size="14.00">+ embaralhar(palavra: String): String</text>
<polygon fill="black" stroke="black" points="136,-663 136,-663 350,-663 350,-663 136,-663"/>
<polygon fill="none" stroke="black" points="136,-639 136,-687 350,-687 350,-639 136,-639"/>
</g>
<!-- EmbaralharInverso1067759703 -->
<g id="node2" class="node"><title>EmbaralharInverso1067759703</title>
<polygon fill="#ffffff" stroke="none" points="230,-87 16,-87 16,-39 230,-39 230,-87"/>
<text text-anchor="start" x="21" y="-70.8" font-family="Times,serif" font-size="14.00">(C)EmbaralharInverso</text>
<text text-anchor="start" x="21" y="-47.8" font-family="Times,serif" font-size="14.00">+ embaralhar(palavra: String): String</text>
<polygon fill="black" stroke="black" points="16,-63 16,-63 230,-63 230,-63 16,-63"/>
<polygon fill="none" stroke="black" points="16,-39 16,-87 230,-87 230,-39 16,-39"/>
</g>
<!-- EmbaralharAleatório1067759703&#45;&gt;EmbaralharInverso1067759703 -->
<g id="edge3" class="edge"><title>EmbaralharAleatório1067759703&#45;&gt;EmbaralharInverso1067759703</title>
<path fill="none" stroke="black" d="M215.914,-638.864C205.026,-629.564 195,-621 195,-621 195,-621 173,-598 173,-598 173,-598 114,-179 114,-179 114,-179 114,-149 114,-149 114,-149 117.876,-112.394 120.541,-87.2266"/>
</g>
<!-- EmbaralharPrimeiroParDepoisImpar1067759703 -->
<g id="node3" class="node"><title>EmbaralharPrimeiroParDepoisImpar1067759703</title>
<polygon fill="#ffffff" stroke="none" points="478,-87 248,-87 248,-39 478,-39 478,-87"/>
<text text-anchor="start" x="253" y="-70.8" font-family="Times,serif" font-size="14.00">(C)EmbaralharPrimeiroParDepoisImpar</text>
<text text-anchor="start" x="253" y="-47.8" font-family="Times,serif" font-size="14.00">+ embaralhar(palavra: String): String</text>
<polygon fill="black" stroke="black" points="248,-63 248,-63 478,-63 478,-63 248,-63"/>
<polygon fill="none" stroke="black" points="248,-39 248,-87 478,-87 478,-39 248,-39"/>
</g>
<!-- EmbaralharAleatório1067759703&#45;&gt;EmbaralharPrimeiroParDepoisImpar1067759703 -->
<g id="edge4" class="edge"><title>EmbaralharAleatório1067759703&#45;&gt;EmbaralharPrimeiroParDepoisImpar1067759703</title>
<path fill="none" stroke="black" d="M321.594,-638.983C353.507,-629.637 383,-621 383,-621 383,-621 418,-598 418,-598 418,-598 472,-179 472,-179 472,-179 472,-149 472,-149 472,-149 424.778,-112.175 392.497,-87.0022"/>
</g>
<!-- FabricaDeEmbaralhadores1067759703 -->
<g id="node4" class="node"><title>FabricaDeEmbaralhadores1067759703</title>
<polygon fill="#ffffff" stroke="none" points="409.5,-429 182.5,-429 182.5,-335 409.5,-335 409.5,-429"/>
<text text-anchor="start" x="188" y="-412.8" font-family="Times,serif" font-size="14.00">(C)FabricaDeEmbaralhadores</text>
<text text-anchor="start" x="188" y="-389.8" font-family="Times,serif" font-size="14.00">&#45; &#160;&#160;random: Random [0..1]</text>
<text text-anchor="start" x="188" y="-366.8" font-family="Times,serif" font-size="14.00">+ embaralhador(palavra: String): String</text>
<text text-anchor="start" x="188" y="-343.8" font-family="Times,serif" font-size="14.00">+ embaralhar(palavra: String): String</text>
<polygon fill="black" stroke="black" points="183,-405 183,-405 410,-405 410,-405 183,-405"/>
<polygon fill="black" stroke="black" points="183,-382 183,-382 410,-382 410,-382 183,-382"/>
<polygon fill="none" stroke="black" points="182.5,-335 182.5,-429 409.5,-429 409.5,-335 182.5,-335"/>
</g>
<!-- EmbaralharAleatório1067759703&#45;&gt;FabricaDeEmbaralhadores1067759703 -->
<g id="edge5" class="edge"><title>EmbaralharAleatório1067759703&#45;&gt;FabricaDeEmbaralhadores1067759703</title>
<path fill="none" stroke="black" d="M318.787,-638.983C349.56,-629.637 378,-621 378,-621 378,-621 378,-606 378,-606 378,-606 337.009,-494.524 312.99,-429.206"/>
</g>
<!-- FabricaDeEmbaralhadores1067759703&#45;&gt;EmbaralharAleatório1067759703 -->
<g id="edge7" class="edge"><title>FabricaDeEmbaralhadores1067759703&#45;&gt;EmbaralharAleatório1067759703</title>
<path fill="none" stroke="black" d="M275.902,-429.206C247.49,-494.524 199,-606 199,-606 199,-606 199,-621 199,-621 199,-621 203.957,-625.619 210.543,-631.756"/>
<polygon fill="black" stroke="black" points="208.469,-634.607 218.171,-638.864 213.241,-629.486 208.469,-634.607"/>
<text text-anchor="middle" x="286.5" y="-609.8" font-family="Times,serif" font-size="14.00">embaralhador() &#45;&gt; embaralhar()</text>
</g>
<!-- FabricaDeEmbaralhadores1067759703&#45;&gt;EmbaralharInverso1067759703 -->
<g id="edge8" class="edge"><title>FabricaDeEmbaralhadores1067759703&#45;&gt;EmbaralharInverso1067759703</title>
<path fill="none" stroke="black" d="M255.386,-334.91C202.851,-275.292 118,-179 118,-179 118,-179 118,-149 118,-149 118,-149 119.634,-121.223 121.034,-97.4265"/>
<polygon fill="black" stroke="black" points="124.54,-97.4149 121.634,-87.2266 117.552,-97.0038 124.54,-97.4149"/>
<text text-anchor="middle" x="205.5" y="-160.3" font-family="Times,serif" font-size="14.00">embaralhador() &#45;&gt; embaralhar()</text>
</g>
<!-- FabricaDeEmbaralhadores1067759703&#45;&gt;EmbaralharPrimeiroParDepoisImpar1067759703 -->
<g id="edge9" class="edge"><title>FabricaDeEmbaralhadores1067759703&#45;&gt;EmbaralharPrimeiroParDepoisImpar1067759703</title>
<path fill="none" stroke="black" d="M296.199,-334.887C296.49,-267.229 297,-149 297,-149 297,-149 319.943,-119.452 338.775,-95.1983"/>
<polygon fill="black" stroke="black" points="341.597,-97.2717 344.965,-87.2266 336.068,-92.9786 341.597,-97.2717"/>
<text text-anchor="middle" x="384.5" y="-160.3" font-family="Times,serif" font-size="14.00">embaralhador() &#45;&gt; embaralhar()</text>
</g>
<!-- BancoDePalavras136677366 -->
<g id="node5" class="node"><title>BancoDePalavras136677366</title>
<polygon fill="#ffffff" stroke="none" points="1380.5,-110 1133.5,-110 1133.5,-16 1380.5,-16 1380.5,-110"/>
<text text-anchor="start" x="1139" y="-93.8" font-family="Times,serif" font-size="14.00">(C)BancoDePalavras</text>
<text text-anchor="start" x="1139" y="-70.8" font-family="Times,serif" font-size="14.00">&#45; &#160;&#160;arquivo: String [0..1]</text>
<text text-anchor="start" x="1139" y="-47.8" font-family="Times,serif" font-size="14.00">&#45; &#160;&#160;palavras: List&lt;String&gt; [0..*]</text>
<text text-anchor="start" x="1139" y="-24.8" font-family="Times,serif" font-size="14.00">&#45; lerArquivo(arquivo: String): List&lt;String&gt;</text>
<polygon fill="black" stroke="black" points="1134,-86 1134,-86 1381,-86 1381,-86 1134,-86"/>
<polygon fill="black" stroke="black" points="1134,-40 1134,-40 1381,-40 1381,-40 1134,-40"/>
<polygon fill="none" stroke="black" points="1133.5,-16 1133.5,-110 1380.5,-110 1380.5,-16 1133.5,-16"/>
</g>
<!-- Principal191926286 -->
<g id="node6" class="node"><title>Principal191926286</title>
<polygon fill="#ffffff" stroke="none" points="1026.5,-687 895.5,-687 895.5,-639 1026.5,-639 1026.5,-687"/>
<text text-anchor="start" x="901" y="-670.8" font-family="Times,serif" font-size="14.00">(C)Principal</text>
<text text-anchor="start" x="901" y="-647.8" font-family="Times,serif" font-size="14.00">+ main(args: String[])</text>
<polygon fill="black" stroke="black" points="896,-663 896,-663 1027,-663 1027,-663 896,-663"/>
<polygon fill="none" stroke="black" points="895.5,-639 895.5,-687 1026.5,-687 1026.5,-639 895.5,-639"/>
</g>
<!-- Principal191926286&#45;&gt;FabricaDeEmbaralhadores1067759703 -->
<g id="edge13" class="edge"><title>Principal191926286&#45;&gt;FabricaDeEmbaralhadores1067759703</title>
<path fill="none" stroke="black" d="M895.014,-653.034C765.388,-635.42 490,-598 490,-598 490,-598 401.927,-500.394 344.466,-436.712"/>
<polygon fill="black" stroke="black" points="346.916,-434.203 337.618,-429.123 341.719,-438.892 346.916,-434.203"/>
<text text-anchor="middle" x="720" y="-609.8" font-family="Times,serif" font-size="14.00">main() &#45;&gt; embaralhar()</text>
</g>
<!-- CincoChances2314509 -->
<g id="node7" class="node"><title>CincoChances2314509</title>
<polygon fill="#ffffff" stroke="none" points="828,-567 502,-567 502,-197 828,-197 828,-567"/>
<text text-anchor="start" x="507" y="-550.8" font-family="Times,serif" font-size="14.00">(C)CincoChances</text>
<text text-anchor="start" x="507" y="-527.8" font-family="Times,serif" font-size="14.00">&#45; &#160;&#160;arquivo: String [0..1]</text>
<text text-anchor="start" x="507" y="-504.8" font-family="Times,serif" font-size="14.00">&#45; &#160;&#160;banco: BancoDePalavras [0..1]</text>
<text text-anchor="start" x="507" y="-481.8" font-family="Times,serif" font-size="14.00">&#45; &#160;&#160;gameover: boolean [1]</text>
<text text-anchor="start" x="507" y="-458.8" font-family="Times,serif" font-size="14.00">&#45; &#160;&#160;passouDeFase: boolean [1]</text>
<text text-anchor="start" x="507" y="-435.8" font-family="Times,serif" font-size="14.00">&#45; &#160;&#160;pontos: int [1]</text>
<text text-anchor="start" x="507" y="-412.8" font-family="Times,serif" font-size="14.00">&#45; &#160;&#160;resultadoRespostaDavez: String [0..1]</text>
<text text-anchor="start" x="507" y="-389.8" font-family="Times,serif" font-size="14.00">&#45; &#160;&#160;tentativas: int [1]</text>
<text text-anchor="start" x="507" y="-366.8" font-family="Times,serif" font-size="14.00">+ acabouJogo(): Boolean</text>
<text text-anchor="start" x="507" y="-343.8" font-family="Times,serif" font-size="14.00">+ acertouResposta(): Boolean</text>
<text text-anchor="start" x="507" y="-320.8" font-family="Times,serif" font-size="14.00">+ instrucoes(): String</text>
<text text-anchor="start" x="507" y="-297.8" font-family="Times,serif" font-size="14.00">+ modoDeJogo(): String</text>
<text text-anchor="start" x="507" y="-274.8" font-family="Times,serif" font-size="14.00">+ palavraDaVez(): String</text>
<text text-anchor="start" x="507" y="-251.8" font-family="Times,serif" font-size="14.00">+ passouDeFase(): String</text>
<text text-anchor="start" x="507" y="-228.8" font-family="Times,serif" font-size="14.00">+ respostaDaVez(palavra: String, resposta: String): String</text>
<text text-anchor="start" x="507" y="-205.8" font-family="Times,serif" font-size="14.00">+ resultadoFinal(): String</text>
<polygon fill="black" stroke="black" points="502,-543 502,-543 828,-543 828,-543 502,-543"/>
<polygon fill="black" stroke="black" points="502,-382 502,-382 828,-382 828,-382 502,-382"/>
<polygon fill="none" stroke="black" points="502,-197 502,-567 828,-567 828,-197 502,-197"/>
</g>
<!-- Principal191926286&#45;&gt;CincoChances2314509 -->
<g id="edge10" class="edge"><title>Principal191926286&#45;&gt;CincoChances2314509</title>
<path fill="none" stroke="black" d="M916.233,-638.895C880.715,-620.562 837,-598 837,-598 837,-598 827.234,-585.793 812.357,-567.196"/>
</g>
<!-- DeDezAcaba2314509 -->
<g id="node8" class="node"><title>DeDezAcaba2314509</title>
<polygon fill="#ffffff" stroke="none" points="1420,-555.5 1094,-555.5 1094,-208.5 1420,-208.5 1420,-555.5"/>
<text text-anchor="start" x="1099" y="-538.8" font-family="Times,serif" font-size="14.00">(C)DeDezAcaba</text>
<text text-anchor="start" x="1099" y="-515.8" font-family="Times,serif" font-size="14.00">&#45; &#160;&#160;arquivo: String [0..1]</text>
<text text-anchor="start" x="1099" y="-492.8" font-family="Times,serif" font-size="14.00">&#45; &#160;&#160;banco: BancoDePalavras [0..1]</text>
<text text-anchor="start" x="1099" y="-469.8" font-family="Times,serif" font-size="14.00">&#45; &#160;&#160;passouDeFase: boolean [1]</text>
<text text-anchor="start" x="1099" y="-446.8" font-family="Times,serif" font-size="14.00">&#45; &#160;&#160;pontos: int [1]</text>
<text text-anchor="start" x="1099" y="-423.8" font-family="Times,serif" font-size="14.00">&#45; &#160;&#160;tentativas: int [1]</text>
<text text-anchor="start" x="1099" y="-400.8" font-family="Times,serif" font-size="14.00">&#45; &#160;&#160;terminou: boolean [1]</text>
<text text-anchor="start" x="1099" y="-377.8" font-family="Times,serif" font-size="14.00">+ acabouJogo(): Boolean</text>
<text text-anchor="start" x="1099" y="-354.8" font-family="Times,serif" font-size="14.00">+ acertouResposta(): Boolean</text>
<text text-anchor="start" x="1099" y="-331.8" font-family="Times,serif" font-size="14.00">+ instrucoes(): String</text>
<text text-anchor="start" x="1099" y="-308.8" font-family="Times,serif" font-size="14.00">+ modoDeJogo(): String</text>
<text text-anchor="start" x="1099" y="-285.8" font-family="Times,serif" font-size="14.00">+ palavraDaVez(): String</text>
<text text-anchor="start" x="1099" y="-262.8" font-family="Times,serif" font-size="14.00">+ passouDeFase(): String</text>
<text text-anchor="start" x="1099" y="-239.8" font-family="Times,serif" font-size="14.00">+ respostaDaVez(palavra: String, resposta: String): String</text>
<text text-anchor="start" x="1099" y="-216.8" font-family="Times,serif" font-size="14.00">+ resultadoFinal(): String</text>
<polygon fill="black" stroke="black" points="1094,-531 1094,-531 1420,-531 1420,-531 1094,-531"/>
<polygon fill="black" stroke="black" points="1094,-393 1094,-393 1420,-393 1420,-393 1094,-393"/>
<polygon fill="none" stroke="black" points="1094,-208.5 1094,-555.5 1420,-555.5 1420,-208.5 1094,-208.5"/>
</g>
<!-- Principal191926286&#45;&gt;DeDezAcaba2314509 -->
<g id="edge11" class="edge"><title>Principal191926286&#45;&gt;DeDezAcaba2314509</title>
<path fill="none" stroke="black" d="M1024.44,-638.983C1050.19,-629.637 1074,-621 1074,-621 1074,-621 1095.75,-592.717 1124.25,-555.651"/>
</g>
<!-- ErrouAcabou2314509 -->
<g id="node9" class="node"><title>ErrouAcabou2314509</title>
<polygon fill="#ffffff" stroke="none" points="1764,-555.5 1438,-555.5 1438,-208.5 1764,-208.5 1764,-555.5"/>
<text text-anchor="start" x="1443" y="-538.8" font-family="Times,serif" font-size="14.00">(C)ErrouAcabou</text>
<text text-anchor="start" x="1443" y="-515.8" font-family="Times,serif" font-size="14.00">&#45; &#160;&#160;arquivo: String [0..1]</text>
<text text-anchor="start" x="1443" y="-492.8" font-family="Times,serif" font-size="14.00">&#45; &#160;&#160;banco: BancoDePalavras [0..1]</text>
<text text-anchor="start" x="1443" y="-469.8" font-family="Times,serif" font-size="14.00">&#45; &#160;&#160;errou: boolean [1]</text>
<text text-anchor="start" x="1443" y="-446.8" font-family="Times,serif" font-size="14.00">&#45; &#160;&#160;pontos: int [1]</text>
<text text-anchor="start" x="1443" y="-423.8" font-family="Times,serif" font-size="14.00">&#45; &#160;&#160;resultadoRespostaDavez: String [0..1]</text>
<text text-anchor="start" x="1443" y="-400.8" font-family="Times,serif" font-size="14.00">&#45; &#160;&#160;tentativas: int [1]</text>
<text text-anchor="start" x="1443" y="-377.8" font-family="Times,serif" font-size="14.00">+ acabouJogo(): Boolean</text>
<text text-anchor="start" x="1443" y="-354.8" font-family="Times,serif" font-size="14.00">+ acertouResposta(): Boolean</text>
<text text-anchor="start" x="1443" y="-331.8" font-family="Times,serif" font-size="14.00">+ instrucoes(): String</text>
<text text-anchor="start" x="1443" y="-308.8" font-family="Times,serif" font-size="14.00">+ modoDeJogo(): String</text>
<text text-anchor="start" x="1443" y="-285.8" font-family="Times,serif" font-size="14.00">+ palavraDaVez(): String</text>
<text text-anchor="start" x="1443" y="-262.8" font-family="Times,serif" font-size="14.00">+ passouDeFase(): String</text>
<text text-anchor="start" x="1443" y="-239.8" font-family="Times,serif" font-size="14.00">+ respostaDaVez(palavra: String, resposta: String): String</text>
<text text-anchor="start" x="1443" y="-216.8" font-family="Times,serif" font-size="14.00">+ resultadoFinal(): String</text>
<polygon fill="black" stroke="black" points="1438,-531 1438,-531 1764,-531 1764,-531 1438,-531"/>
<polygon fill="black" stroke="black" points="1438,-393 1438,-393 1764,-393 1764,-393 1438,-393"/>
<polygon fill="none" stroke="black" points="1438,-208.5 1438,-555.5 1764,-555.5 1764,-208.5 1438,-208.5"/>
</g>
<!-- Principal191926286&#45;&gt;ErrouAcabou2314509 -->
<g id="edge12" class="edge"><title>Principal191926286&#45;&gt;ErrouAcabou2314509</title>
<path fill="none" stroke="black" d="M1026.57,-653.034C1155.37,-635.42 1429,-598 1429,-598 1429,-598 1442.99,-580.517 1462.98,-555.523"/>
</g>
<!-- FabricaMecanicaDeJogo2314509 -->
<g id="node10" class="node"><title>FabricaMecanicaDeJogo2314509</title>
<polygon fill="#ffffff" stroke="none" points="1076,-417.5 846,-417.5 846,-346.5 1076,-346.5 1076,-417.5"/>
<text text-anchor="start" x="851" y="-400.8" font-family="Times,serif" font-size="14.00">(C)FabricaMecanicaDeJogo</text>
<text text-anchor="start" x="851" y="-377.8" font-family="Times,serif" font-size="14.00">&#45; Aleatorio(): MecanicaDoJogo</text>
<text text-anchor="start" x="851" y="-354.8" font-family="Times,serif" font-size="14.00">+ getJogo(opcao: int): MecanicaDoJogo</text>
<polygon fill="black" stroke="black" points="846,-393 846,-393 1076,-393 1076,-393 846,-393"/>
<polygon fill="none" stroke="black" points="846,-346.5 846,-417.5 1076,-417.5 1076,-346.5 846,-346.5"/>
</g>
<!-- Principal191926286&#45;&gt;FabricaMecanicaDeJogo2314509 -->
<g id="edge14" class="edge"><title>Principal191926286&#45;&gt;FabricaMecanicaDeJogo2314509</title>
<path fill="none" stroke="black" d="M961,-638.692C961,-592.362 961,-487.988 961,-427.898"/>
<polygon fill="black" stroke="black" points="964.5,-427.575 961,-417.575 957.5,-427.575 964.5,-427.575"/>
<text text-anchor="middle" x="1015.5" y="-609.8" font-family="Times,serif" font-size="14.00">main() &#45;&gt; getJogo()</text>
</g>
<!-- CincoChances2314509&#45;&gt;BancoDePalavras136677366 -->
<g id="edge1" class="edge"><title>CincoChances2314509&#45;&gt;BancoDePalavras136677366</title>
<path fill="none" stroke="black" d="M828.234,-198.785C833.785,-192.589 837,-189 837,-189 837,-189 1000.4,-140.37 1123.36,-103.774"/>
<polygon fill="black" stroke="black" points="1124.67,-107.035 1133.26,-100.828 1122.67,-100.326 1124.67,-107.035"/>
<text text-anchor="middle" x="977.5" y="-167.8" font-family="Times,serif" font-size="14.00">banco</text>
<text text-anchor="middle" x="977.5" y="-152.8" font-family="Times,serif" font-size="14.00">[0..1]</text>
</g>
<!-- DeDezAcaba2314509&#45;&gt;BancoDePalavras136677366 -->
<g id="edge2" class="edge"><title>DeDezAcaba2314509&#45;&gt;BancoDePalavras136677366</title>
<path fill="none" stroke="black" d="M1257,-208.123C1257,-176.289 1257,-145.234 1257,-120.154"/>
<polygon fill="black" stroke="black" points="1260.5,-120.141 1257,-110.141 1253.5,-120.141 1260.5,-120.141"/>
<text text-anchor="middle" x="1273.5" y="-167.8" font-family="Times,serif" font-size="14.00">banco</text>
<text text-anchor="middle" x="1273.5" y="-152.8" font-family="Times,serif" font-size="14.00">[0..1]</text>
</g>
<!-- ErrouAcabou2314509&#45;&gt;BancoDePalavras136677366 -->
<g id="edge6" class="edge"><title>ErrouAcabou2314509&#45;&gt;BancoDePalavras136677366</title>
<path fill="none" stroke="black" d="M1446.44,-208.467C1435.69,-196.471 1429,-189 1429,-189 1429,-189 1375.88,-150.394 1328.68,-116.092"/>
<polygon fill="black" stroke="black" points="1330.7,-113.238 1320.56,-110.19 1326.59,-118.9 1330.7,-113.238"/>
<text text-anchor="middle" x="1430.5" y="-167.8" font-family="Times,serif" font-size="14.00">banco</text>
<text text-anchor="middle" x="1430.5" y="-152.8" font-family="Times,serif" font-size="14.00">[0..1]</text>
</g>
</g>
</svg>
