<?xml version="1.0" encoding="UTF-8" standalone="no"?>
<!DOCTYPE svg PUBLIC "-//W3C//DTD SVG 1.1//EN"
 "http://www.w3.org/Graphics/SVG/1.1/DTD/svg11.dtd">
<!-- Generated by graphviz version 2.38.0 (20140413.2041)
 -->
<!-- Title: g Pages: 1 -->
<svg width="623pt" height="712pt"
 viewBox="0.00 0.00 623.00 712.00" xmlns="http://www.w3.org/2000/svg" xmlns:xlink="http://www.w3.org/1999/xlink">
<g id="graph0" class="graph" transform="scale(1 1) rotate(0) translate(4 708)">
<title>g</title>
<polygon fill="white" stroke="none" points="-4,4 -4,-708 619,-708 619,4 -4,4"/>
<g id="clust1" class="cluster"><title>cluster_1067759703</title>
<polygon fill="#ececec" stroke="black" points="52,-8 52,-354 514,-354 514,-8 52,-8"/>
<text text-anchor="middle" x="115" y="-338.8" font-family="Times,serif" font-size="14.00">EmbaralharPalavras</text>
</g>
<g id="clust2" class="cluster"><title>cluster_1527553641</title>
<polygon fill="#ececec" stroke="black" points="8,-402 8,-696 468,-696 468,-402 8,-402"/>
<text text-anchor="middle" x="67.5" y="-680.8" font-family="Times,serif" font-size="14.00">EmaralharPalavras</text>
</g>
<!-- EmbaralharAleatório1067759703 -->
<g id="node1" class="node"><title>EmbaralharAleatório1067759703</title>
<polygon fill="#ffffff" stroke="none" points="274,-64 60,-64 60,-16 274,-16 274,-64"/>
<text text-anchor="start" x="65" y="-47.8" font-family="Times,serif" font-size="14.00">(C)EmbaralharAleatório</text>
<text text-anchor="start" x="65" y="-24.8" font-family="Times,serif" font-size="14.00">+ embaralhar(palavra: String): String</text>
<polygon fill="black" stroke="black" points="60,-40 60,-40 274,-40 274,-40 60,-40"/>
<polygon fill="none" stroke="black" points="60,-16 60,-64 274,-64 274,-16 60,-16"/>
</g>
<!-- EmbaralharInverso1067759703 -->
<g id="node2" class="node"><title>EmbaralharInverso1067759703</title>
<polygon fill="#ffffff" stroke="none" points="506,-64 292,-64 292,-16 506,-16 506,-64"/>
<text text-anchor="start" x="297" y="-47.8" font-family="Times,serif" font-size="14.00">(C)EmbaralharInverso</text>
<text text-anchor="start" x="297" y="-24.8" font-family="Times,serif" font-size="14.00">+ embaralhar(palavra: String): String</text>
<polygon fill="black" stroke="black" points="292,-40 292,-40 506,-40 506,-40 292,-40"/>
<polygon fill="none" stroke="black" points="292,-16 292,-64 506,-64 506,-16 292,-16"/>
</g>
<!-- EmbaralharPrimeiroParDepoisImpar1067759703 -->
<g id="node3" class="node"><title>EmbaralharPrimeiroParDepoisImpar1067759703</title>
<polygon fill="#ffffff" stroke="none" points="491,-323 261,-323 261,-275 491,-275 491,-323"/>
<text text-anchor="start" x="266" y="-306.8" font-family="Times,serif" font-size="14.00">(C)EmbaralharPrimeiroParDepoisImpar</text>
<text text-anchor="start" x="266" y="-283.8" font-family="Times,serif" font-size="14.00">+ embaralhar(palavra: String): String</text>
<polygon fill="black" stroke="black" points="261,-299 261,-299 491,-299 491,-299 261,-299"/>
<polygon fill="none" stroke="black" points="261,-275 261,-323 491,-323 491,-275 261,-275"/>
</g>
<!-- EmbaralharPrimeiroParDepoisImpar1067759703&#45;&gt;EmbaralharAleatório1067759703 -->
<g id="edge1" class="edge"><title>EmbaralharPrimeiroParDepoisImpar1067759703&#45;&gt;EmbaralharAleatório1067759703</title>
<path fill="none" stroke="black" d="M277.196,-274.983C237.077,-265.637 200,-257 200,-257 200,-257 112,-209 112,-209 112,-209 112,-115 112,-115 112,-115 123,-82 123,-82 123,-82 132.191,-73.436 142.171,-64.1361"/>
</g>
<!-- EmbaralharPrimeiroParDepoisImpar1067759703&#45;&gt;EmbaralharInverso1067759703 -->
<g id="edge2" class="edge"><title>EmbaralharPrimeiroParDepoisImpar1067759703&#45;&gt;EmbaralharInverso1067759703</title>
<path fill="none" stroke="black" d="M390.224,-274.943C422.795,-222.147 500,-97 500,-97 500,-97 500,-82 500,-82 500,-82 478.723,-73.3627 455.7,-64.0168"/>
</g>
<!-- FabricaDeEmbaralhadores1067759703 -->
<g id="node4" class="node"><title>FabricaDeEmbaralhadores1067759703</title>
<polygon fill="#ffffff" stroke="none" points="348.5,-209 121.5,-209 121.5,-115 348.5,-115 348.5,-209"/>
<text text-anchor="start" x="127" y="-192.8" font-family="Times,serif" font-size="14.00">(C)FabricaDeEmbaralhadores</text>
<text text-anchor="start" x="127" y="-169.8" font-family="Times,serif" font-size="14.00">&#45; &#160;&#160;random: Random [0..1]</text>
<text text-anchor="start" x="127" y="-146.8" font-family="Times,serif" font-size="14.00">+ embaralhador(palavra: String): String</text>
<text text-anchor="start" x="127" y="-123.8" font-family="Times,serif" font-size="14.00">+ embaralhar(palavra: String): String</text>
<polygon fill="black" stroke="black" points="122,-185 122,-185 349,-185 349,-185 122,-185"/>
<polygon fill="black" stroke="black" points="122,-162 122,-162 349,-162 349,-162 122,-162"/>
<polygon fill="none" stroke="black" points="121.5,-115 121.5,-209 348.5,-209 348.5,-115 121.5,-115"/>
</g>
<!-- EmbaralharPrimeiroParDepoisImpar1067759703&#45;&gt;FabricaDeEmbaralhadores1067759703 -->
<g id="edge3" class="edge"><title>EmbaralharPrimeiroParDepoisImpar1067759703&#45;&gt;FabricaDeEmbaralhadores1067759703</title>
<path fill="none" stroke="black" d="M379.991,-274.626C381.563,-265.418 383,-257 383,-257 383,-257 383,-227 383,-227 383,-227 364.91,-219.177 341.38,-209.002"/>
</g>
<!-- FabricaDeEmbaralhadores1067759703&#45;&gt;EmbaralharAleatório1067759703 -->
<g id="edge4" class="edge"><title>FabricaDeEmbaralhadores1067759703&#45;&gt;EmbaralharAleatório1067759703</title>
<path fill="none" stroke="black" d="M157.371,-114.998C140.2,-104.823 127,-97 127,-97 127,-97 127,-82 127,-82 127,-82 131.243,-77.6511 136.965,-71.7861"/>
<polygon fill="black" stroke="black" points="139.718,-73.9764 144.196,-64.3744 134.707,-69.0881 139.718,-73.9764"/>
<text text-anchor="middle" x="214.5" y="-85.8" font-family="Times,serif" font-size="14.00">embaralhador() &#45;&gt; embaralhar()</text>
</g>
<!-- FabricaDeEmbaralhadores1067759703&#45;&gt;EmbaralharInverso1067759703 -->
<g id="edge5" class="edge"><title>FabricaDeEmbaralhadores1067759703&#45;&gt;EmbaralharInverso1067759703</title>
<path fill="none" stroke="black" d="M287.614,-114.817C307.309,-97.5288 325,-82 325,-82 325,-82 335.401,-76.2372 348.405,-69.0326"/>
<polygon fill="black" stroke="black" points="350.191,-72.044 357.242,-64.1361 346.799,-65.921 350.191,-72.044"/>
<text text-anchor="middle" x="412.5" y="-85.8" font-family="Times,serif" font-size="14.00">embaralhador() &#45;&gt; embaralhar()</text>
</g>
<!-- FabricaDeEmbaralhadores1067759703&#45;&gt;EmbaralharPrimeiroParDepoisImpar1067759703 -->
<g id="edge6" class="edge"><title>FabricaDeEmbaralhadores1067759703&#45;&gt;EmbaralharPrimeiroParDepoisImpar1067759703</title>
<path fill="none" stroke="black" d="M212.635,-209.172C207.747,-219.265 204,-227 204,-227 204,-227 204,-257 204,-257 204,-257 234.274,-264.217 269.421,-272.594"/>
<polygon fill="black" stroke="black" points="268.903,-276.069 279.442,-274.983 270.526,-269.26 268.903,-276.069"/>
<text text-anchor="middle" x="291.5" y="-238.3" font-family="Times,serif" font-size="14.00">embaralhador() &#45;&gt; embaralhar()</text>
</g>
<!-- TesteEmbaralharPalavras1927468837 -->
<g id="node5" class="node"><title>TesteEmbaralharPalavras1927468837</title>
<polygon fill="#ffffff" stroke="none" points="460,-665 16,-665 16,-410 460,-410 460,-665"/>
<text text-anchor="start" x="21" y="-648.3" font-family="Times,serif" font-size="14.00">(C)TesteEmbaralharPalavras</text>
<text text-anchor="start" x="21" y="-625.3" font-family="Times,serif" font-size="14.00"># &#160;&#160;embaralharAleatório: EmbaralharAleatório [0..1]</text>
<text text-anchor="start" x="21" y="-602.3" font-family="Times,serif" font-size="14.00"># &#160;&#160;embaralharInverso: EmbaralharInverso [0..1]</text>
<text text-anchor="start" x="21" y="-579.3" font-family="Times,serif" font-size="14.00"># &#160;&#160;embaralharParesDepoisImpares: EmbaralharPrimeiroParDepoisImpar [0..1]</text>
<text text-anchor="start" x="21" y="-556.3" font-family="Times,serif" font-size="14.00"># &#160;&#160;fabricaDeEmbaralhadores: FabricaDeEmbaralhadores [0..1]</text>
<text text-anchor="start" x="21" y="-533.3" font-family="Times,serif" font-size="14.00"># &#160;&#160;palavra: String [0..1]</text>
<text text-anchor="start" x="21" y="-510.3" font-family="Times,serif" font-size="14.00"># &#160;&#160;random: Random [0..1]</text>
<text text-anchor="start" x="21" y="-487.3" font-family="Times,serif" font-size="14.00">+ testeEmbaralhador()</text>
<text text-anchor="start" x="21" y="-464.3" font-family="Times,serif" font-size="14.00">+ testeEmbaralhadorInverso()</text>
<text text-anchor="start" x="21" y="-441.3" font-family="Times,serif" font-size="14.00">+ testeEmbaralhar()</text>
<text text-anchor="start" x="21" y="-418.3" font-family="Times,serif" font-size="14.00">+ testeEmbaralharParesDepoisImpares()</text>
<polygon fill="black" stroke="black" points="16,-640.5 16,-640.5 460,-640.5 460,-640.5 16,-640.5"/>
<polygon fill="black" stroke="black" points="16,-502.5 16,-502.5 460,-502.5 460,-502.5 16,-502.5"/>
<polygon fill="none" stroke="black" points="16,-410 16,-665 460,-665 460,-410 16,-410"/>
</g>
<!-- TesteEmbaralharPalavras1927468837&#45;&gt;EmbaralharAleatório1067759703 -->
<g id="edge7" class="edge"><title>TesteEmbaralharPalavras1927468837&#45;&gt;EmbaralharAleatório1067759703</title>
<path fill="none" stroke="black" d="M128.327,-409.719C118.981,-398.915 113,-392 113,-392 113,-392 14,-257 14,-257 14,-257 14,-227 14,-227 14,-227 115,-82 115,-82 115,-82 121.367,-76.98 129.645,-70.453"/>
<polygon fill="black" stroke="black" points="131.971,-73.0761 137.657,-64.1361 127.637,-67.5792 131.971,-73.0761"/>
<text text-anchor="middle" x="70.5" y="-245.8" font-family="Times,serif" font-size="14.00">embaralharAleatório</text>
<text text-anchor="middle" x="70.5" y="-230.8" font-family="Times,serif" font-size="14.00">[0..1]</text>
</g>
<!-- TesteEmbaralharPalavras1927468837&#45;&gt;EmbaralharInverso1067759703 -->
<g id="edge8" class="edge"><title>TesteEmbaralharPalavras1927468837&#45;&gt;EmbaralharInverso1067759703</title>
<path fill="none" stroke="black" d="M460.204,-421.416C493.53,-404.156 517,-392 517,-392 517,-392 517,-362 517,-362 517,-362 505,-82 505,-82 505,-82 488.207,-75.5046 467.989,-67.6845"/>
<polygon fill="black" stroke="black" points="469.096,-64.36 458.507,-64.0168 466.571,-70.8887 469.096,-64.36"/>
<text text-anchor="middle" x="563.5" y="-245.8" font-family="Times,serif" font-size="14.00">embaralharInverso</text>
<text text-anchor="middle" x="563.5" y="-230.8" font-family="Times,serif" font-size="14.00">[0..1]</text>
</g>
<!-- TesteEmbaralharPalavras1927468837&#45;&gt;EmbaralharPrimeiroParDepoisImpar1067759703 -->
<g id="edge9" class="edge"><title>TesteEmbaralharPalavras1927468837&#45;&gt;EmbaralharPrimeiroParDepoisImpar1067759703</title>
<path fill="none" stroke="black" d="M311.848,-409.942C328.742,-380.989 345.246,-352.705 357.284,-332.076"/>
<polygon fill="black" stroke="black" points="360.468,-333.562 362.485,-323.161 354.422,-330.034 360.468,-333.562"/>
<text text-anchor="middle" x="426" y="-380.8" font-family="Times,serif" font-size="14.00">embaralharParesDepoisImpares</text>
<text text-anchor="middle" x="426" y="-365.8" font-family="Times,serif" font-size="14.00">[0..1]</text>
</g>
<!-- TesteEmbaralharPalavras1927468837&#45;&gt;FabricaDeEmbaralhadores1067759703 -->
<g id="edge10" class="edge"><title>TesteEmbaralharPalavras1927468837&#45;&gt;FabricaDeEmbaralhadores1067759703</title>
<path fill="none" stroke="black" d="M149.1,-409.748C127.258,-378.606 110,-354 110,-354 110,-354 110,-275 110,-275 110,-275 143.429,-245.048 175.712,-216.122"/>
<polygon fill="black" stroke="black" points="178.324,-218.481 183.436,-209.201 173.653,-213.268 178.324,-218.481"/>
<text text-anchor="middle" x="181" y="-302.8" font-family="Times,serif" font-size="14.00">fabricaDeEmbaralhadores</text>
<text text-anchor="middle" x="181" y="-287.8" font-family="Times,serif" font-size="14.00">[0..1]</text>
</g>
</g>
</svg>
