<?xml version="1.0" encoding="UTF-8" standalone="no"?>
<!DOCTYPE svg PUBLIC "-//W3C//DTD SVG 1.1//EN"
 "http://www.w3.org/Graphics/SVG/1.1/DTD/svg11.dtd">
<!-- Generated by graphviz version 2.38.0 (20140413.2041)
 -->
<!-- Title: g Pages: 1 -->
<svg width="682pt" height="712pt"
 viewBox="0.00 0.00 682.00 712.00" xmlns="http://www.w3.org/2000/svg" xmlns:xlink="http://www.w3.org/1999/xlink">
<g id="graph0" class="graph" transform="scale(1 1) rotate(0) translate(4 708)">
<title>g</title>
<polygon fill="white" stroke="none" points="-4,4 -4,-708 678,-708 678,4 -4,4"/>
<g id="clust1" class="cluster"><title>cluster_1067759703</title>
<polygon fill="#ececec" stroke="black" points="38,-8 38,-354 516,-354 516,-8 38,-8"/>
<text text-anchor="middle" x="101" y="-338.8" font-family="Times,serif" font-size="14.00">EmbaralharPalavras</text>
</g>
<g id="clust2" class="cluster"><title>cluster_1527553641</title>
<polygon fill="#ececec" stroke="black" points="8,-402 8,-696 468,-696 468,-402 8,-402"/>
<text text-anchor="middle" x="67.5" y="-680.8" font-family="Times,serif" font-size="14.00">EmaralharPalavras</text>
</g>
<!-- EmbaralharAleatório1067759703 -->
<g id="node1" class="node"><title>EmbaralharAleatório1067759703</title>
<polygon fill="#ffffff" stroke="none" points="260,-64 46,-64 46,-16 260,-16 260,-64"/>
<text text-anchor="start" x="51" y="-47.8" font-family="Times,serif" font-size="14.00">(C)EmbaralharAleatório</text>
<text text-anchor="start" x="51" y="-24.8" font-family="Times,serif" font-size="14.00">+ embaralhar(palavra: String): String</text>
<polygon fill="black" stroke="black" points="46,-40 46,-40 260,-40 260,-40 46,-40"/>
<polygon fill="none" stroke="black" points="46,-16 46,-64 260,-64 260,-16 46,-16"/>
</g>
<!-- EmbaralharInverso1067759703 -->
<g id="node2" class="node"><title>EmbaralharInverso1067759703</title>
<polygon fill="#ffffff" stroke="none" points="485,-323 271,-323 271,-275 485,-275 485,-323"/>
<text text-anchor="start" x="276" y="-306.8" font-family="Times,serif" font-size="14.00">(C)EmbaralharInverso</text>
<text text-anchor="start" x="276" y="-283.8" font-family="Times,serif" font-size="14.00">+ embaralhar(palavra: String): String</text>
<polygon fill="black" stroke="black" points="271,-299 271,-299 485,-299 485,-299 271,-299"/>
<polygon fill="none" stroke="black" points="271,-275 271,-323 485,-323 485,-275 271,-275"/>
</g>
<!-- EmbaralharInverso1067759703&#45;&gt;EmbaralharAleatório1067759703 -->
<g id="edge1" class="edge"><title>EmbaralharInverso1067759703&#45;&gt;EmbaralharAleatório1067759703</title>
<path fill="none" stroke="black" d="M276.951,-274.983C235.92,-265.637 198,-257 198,-257 198,-257 114,-209 114,-209 114,-209 114,-115 114,-115 114,-115 125,-82 125,-82 125,-82 130.749,-73.5818 137.037,-64.3744"/>
</g>
<!-- EmbaralharPrimeiroParDepoisImpar1067759703 -->
<g id="node3" class="node"><title>EmbaralharPrimeiroParDepoisImpar1067759703</title>
<polygon fill="#ffffff" stroke="none" points="508,-64 278,-64 278,-16 508,-16 508,-64"/>
<text text-anchor="start" x="283" y="-47.8" font-family="Times,serif" font-size="14.00">(C)EmbaralharPrimeiroParDepoisImpar</text>
<text text-anchor="start" x="283" y="-24.8" font-family="Times,serif" font-size="14.00">+ embaralhar(palavra: String): String</text>
<polygon fill="black" stroke="black" points="278,-40 278,-40 508,-40 508,-40 278,-40"/>
<polygon fill="none" stroke="black" points="278,-16 278,-64 508,-64 508,-16 278,-16"/>
</g>
<!-- EmbaralharInverso1067759703&#45;&gt;EmbaralharPrimeiroParDepoisImpar1067759703 -->
<g id="edge2" class="edge"><title>EmbaralharInverso1067759703&#45;&gt;EmbaralharPrimeiroParDepoisImpar1067759703</title>
<path fill="none" stroke="black" d="M392.224,-274.943C424.795,-222.147 502,-97 502,-97 502,-97 502,-82 502,-82 502,-82 479.037,-73.3627 454.191,-64.0168"/>
</g>
<!-- FabricaDeEmbaralhadores1067759703 -->
<g id="node4" class="node"><title>FabricaDeEmbaralhadores1067759703</title>
<polygon fill="#ffffff" stroke="none" points="350.5,-209 123.5,-209 123.5,-115 350.5,-115 350.5,-209"/>
<text text-anchor="start" x="129" y="-192.8" font-family="Times,serif" font-size="14.00">(C)FabricaDeEmbaralhadores</text>
<text text-anchor="start" x="129" y="-169.8" font-family="Times,serif" font-size="14.00">&#45; &#160;&#160;random: Random [0..1]</text>
<text text-anchor="start" x="129" y="-146.8" font-family="Times,serif" font-size="14.00">+ embaralhador(palavra: String): String</text>
<text text-anchor="start" x="129" y="-123.8" font-family="Times,serif" font-size="14.00">+ embaralhar(palavra: String): String</text>
<polygon fill="black" stroke="black" points="124,-185 124,-185 351,-185 351,-185 124,-185"/>
<polygon fill="black" stroke="black" points="124,-162 124,-162 351,-162 351,-162 124,-162"/>
<polygon fill="none" stroke="black" points="123.5,-115 123.5,-209 350.5,-209 350.5,-115 123.5,-115"/>
</g>
<!-- EmbaralharInverso1067759703&#45;&gt;FabricaDeEmbaralhadores1067759703 -->
<g id="edge3" class="edge"><title>EmbaralharInverso1067759703&#45;&gt;FabricaDeEmbaralhadores1067759703</title>
<path fill="none" stroke="black" d="M379.71,-274.626C380.384,-265.418 381,-257 381,-257 381,-257 381,-227 381,-227 381,-227 363.399,-219.177 340.505,-209.002"/>
</g>
<!-- FabricaDeEmbaralhadores1067759703&#45;&gt;EmbaralharAleatório1067759703 -->
<g id="edge4" class="edge"><title>FabricaDeEmbaralhadores1067759703&#45;&gt;EmbaralharAleatório1067759703</title>
<path fill="none" stroke="black" d="M159.371,-114.998C142.2,-104.823 129,-97 129,-97 129,-97 129,-82 129,-82 129,-82 131.122,-78.3746 134.104,-73.2799"/>
<polygon fill="black" stroke="black" points="137.286,-74.7727 139.317,-64.3744 131.245,-71.2364 137.286,-74.7727"/>
<text text-anchor="middle" x="216.5" y="-85.8" font-family="Times,serif" font-size="14.00">embaralhador() &#45;&gt; embaralhar()</text>
</g>
<!-- FabricaDeEmbaralhadores1067759703&#45;&gt;EmbaralharInverso1067759703 -->
<g id="edge5" class="edge"><title>FabricaDeEmbaralhadores1067759703&#45;&gt;EmbaralharInverso1067759703</title>
<path fill="none" stroke="black" d="M211.749,-209.172C206.23,-219.265 202,-227 202,-227 202,-227 202,-257 202,-257 202,-257 233.244,-264.278 269.403,-272.702"/>
<polygon fill="black" stroke="black" points="268.663,-276.123 279.196,-274.983 270.251,-269.306 268.663,-276.123"/>
<text text-anchor="middle" x="289.5" y="-238.3" font-family="Times,serif" font-size="14.00">embaralhador() &#45;&gt; embaralhar()</text>
</g>
<!-- FabricaDeEmbaralhadores1067759703&#45;&gt;EmbaralharPrimeiroParDepoisImpar1067759703 -->
<g id="edge6" class="edge"><title>FabricaDeEmbaralhadores1067759703&#45;&gt;EmbaralharPrimeiroParDepoisImpar1067759703</title>
<path fill="none" stroke="black" d="M289.614,-114.817C309.309,-97.5288 327,-82 327,-82 327,-82 335.927,-76.4546 347.214,-69.4427"/>
<polygon fill="black" stroke="black" points="349.109,-72.386 355.757,-64.1361 345.415,-66.4399 349.109,-72.386"/>
<text text-anchor="middle" x="414.5" y="-85.8" font-family="Times,serif" font-size="14.00">embaralhador() &#45;&gt; embaralhar()</text>
</g>
<!-- TesteEmbaralharPalavras1927468837 -->
<g id="node5" class="node"><title>TesteEmbaralharPalavras1927468837</title>
<polygon fill="#ffffff" stroke="none" points="460,-665 16,-665 16,-410 460,-410 460,-665"/>
<text text-anchor="start" x="21" y="-648.3" font-family="Times,serif" font-size="14.00">(C)TesteEmbaralharPalavras</text>
<text text-anchor="start" x="21" y="-625.3" font-family="Times,serif" font-size="14.00"># &#160;&#160;embaralharAleatório: EmbaralharAleatório [0..1]</text>
<text text-anchor="start" x="21" y="-602.3" font-family="Times,serif" font-size="14.00"># &#160;&#160;embaralharInverso: EmbaralharInverso [0..1]</text>
<text text-anchor="start" x="21" y="-579.3" font-family="Times,serif" font-size="14.00"># &#160;&#160;embaralharParesDepoisImpares: EmbaralharPrimeiroParDepoisImpar [0..1]</text>
<text text-anchor="start" x="21" y="-556.3" font-family="Times,serif" font-size="14.00"># &#160;&#160;fabricaDeEmbaralhadores: FabricaDeEmbaralhadores [0..1]</text>
<text text-anchor="start" x="21" y="-533.3" font-family="Times,serif" font-size="14.00"># &#160;&#160;palavra: String [0..1]</text>
<text text-anchor="start" x="21" y="-510.3" font-family="Times,serif" font-size="14.00"># &#160;&#160;random: Random [0..1]</text>
<text text-anchor="start" x="21" y="-487.3" font-family="Times,serif" font-size="14.00">+ testeEmbaralhador()</text>
<text text-anchor="start" x="21" y="-464.3" font-family="Times,serif" font-size="14.00">+ testeEmbaralhadorInverso()</text>
<text text-anchor="start" x="21" y="-441.3" font-family="Times,serif" font-size="14.00">+ testeEmbaralhar()</text>
<text text-anchor="start" x="21" y="-418.3" font-family="Times,serif" font-size="14.00">+ testeEmbaralharParesDepoisImpares()</text>
<polygon fill="black" stroke="black" points="16,-640.5 16,-640.5 460,-640.5 460,-640.5 16,-640.5"/>
<polygon fill="black" stroke="black" points="16,-502.5 16,-502.5 460,-502.5 460,-502.5 16,-502.5"/>
<polygon fill="none" stroke="black" points="16,-410 16,-665 460,-665 460,-410 16,-410"/>
</g>
<!-- TesteEmbaralharPalavras1927468837&#45;&gt;EmbaralharAleatório1067759703 -->
<g id="edge7" class="edge"><title>TesteEmbaralharPalavras1927468837&#45;&gt;EmbaralharAleatório1067759703</title>
<path fill="none" stroke="black" d="M136.224,-409.719C127.551,-398.915 122,-392 122,-392 122,-392 23,-257 23,-257 23,-257 23,-227 23,-227 23,-227 117,-82 117,-82 117,-82 120.654,-77.8382 125.634,-72.1664"/>
<polygon fill="black" stroke="black" points="128.508,-74.1981 132.476,-64.3744 123.248,-69.5795 128.508,-74.1981"/>
<text text-anchor="middle" x="79.5" y="-245.8" font-family="Times,serif" font-size="14.00">embaralharAleatório</text>
<text text-anchor="middle" x="79.5" y="-230.8" font-family="Times,serif" font-size="14.00">[0..1]</text>
</g>
<!-- TesteEmbaralharPalavras1927468837&#45;&gt;EmbaralharInverso1067759703 -->
<g id="edge8" class="edge"><title>TesteEmbaralharPalavras1927468837&#45;&gt;EmbaralharInverso1067759703</title>
<path fill="none" stroke="black" d="M312.918,-409.942C330.134,-380.859 346.951,-352.45 359.177,-331.797"/>
<polygon fill="black" stroke="black" points="362.207,-333.55 364.289,-323.161 356.183,-329.984 362.207,-333.55"/>
<text text-anchor="middle" x="392.5" y="-380.8" font-family="Times,serif" font-size="14.00">embaralharInverso</text>
<text text-anchor="middle" x="392.5" y="-365.8" font-family="Times,serif" font-size="14.00">[0..1]</text>
</g>
<!-- TesteEmbaralharPalavras1927468837&#45;&gt;EmbaralharPrimeiroParDepoisImpar1067759703 -->
<g id="edge9" class="edge"><title>TesteEmbaralharPalavras1927468837&#45;&gt;EmbaralharPrimeiroParDepoisImpar1067759703</title>
<path fill="none" stroke="black" d="M422.25,-409.719C437.951,-398.915 448,-392 448,-392 448,-392 494,-354 494,-354 494,-354 507,-97 507,-97 507,-97 507,-82 507,-82 507,-82 488.613,-75.387 466.607,-67.4728"/>
<polygon fill="black" stroke="black" points="467.592,-64.1077 456.998,-64.0168 465.223,-70.6946 467.592,-64.1077"/>
<text text-anchor="middle" x="587" y="-245.8" font-family="Times,serif" font-size="14.00">embaralharParesDepoisImpares</text>
<text text-anchor="middle" x="587" y="-230.8" font-family="Times,serif" font-size="14.00">[0..1]</text>
</g>
<!-- TesteEmbaralharPalavras1927468837&#45;&gt;FabricaDeEmbaralhadores1067759703 -->
<g id="edge10" class="edge"><title>TesteEmbaralharPalavras1927468837&#45;&gt;FabricaDeEmbaralhadores1067759703</title>
<path fill="none" stroke="black" d="M156.045,-409.748C135.91,-378.606 120,-354 120,-354 120,-354 120,-275 120,-275 120,-275 151.289,-245.048 181.506,-216.122"/>
<polygon fill="black" stroke="black" points="183.933,-218.645 188.736,-209.201 179.092,-213.588 183.933,-218.645"/>
<text text-anchor="middle" x="191" y="-302.8" font-family="Times,serif" font-size="14.00">fabricaDeEmbaralhadores</text>
<text text-anchor="middle" x="191" y="-287.8" font-family="Times,serif" font-size="14.00">[0..1]</text>
</g>
</g>
</svg>
