<?xml version="1.0" encoding="UTF-8" standalone="no"?>
<!DOCTYPE svg PUBLIC "-//W3C//DTD SVG 1.1//EN"
 "http://www.w3.org/Graphics/SVG/1.1/DTD/svg11.dtd">
<!-- Generated by graphviz version 2.38.0 (20140413.2041)
 -->
<!-- Title: g Pages: 1 -->
<svg width="1245pt" height="577pt"
 viewBox="0.00 0.00 1245.00 577.00" xmlns="http://www.w3.org/2000/svg" xmlns:xlink="http://www.w3.org/1999/xlink">
<g id="graph0" class="graph" transform="scale(1 1) rotate(0) translate(4 573)">
<title>g</title>
<polygon fill="white" stroke="none" points="-4,4 -4,-573 1241,-573 1241,4 -4,4"/>
<g id="clust1" class="cluster"><title>cluster_1067759703</title>
<polygon fill="#ececec" stroke="black" points="8,-8 8,-457.5 718,-457.5 718,-8 8,-8"/>
<text text-anchor="middle" x="71" y="-442.3" font-family="Times,serif" font-size="14.00">EmbaralharPalavras</text>
</g>
<g id="clust2" class="cluster"><title>cluster_1527553641</title>
<polygon fill="#ececec" stroke="black" points="726,-267 726,-561 1186,-561 1186,-267 726,-267"/>
<text text-anchor="middle" x="785.5" y="-545.8" font-family="Times,serif" font-size="14.00">EmaralharPalavras</text>
</g>
<!-- Embaralhador1067759703 -->
<g id="node1" class="node"><title>Embaralhador1067759703</title>
<polygon fill="#f1e5fd" stroke="none" points="284,-426.5 70,-426.5 70,-378.5 284,-378.5 284,-426.5"/>
<text text-anchor="start" x="75" y="-410.3" font-family="Times,serif" font-size="14.00">(I)Embaralhador</text>
<text text-anchor="start" x="75" y="-387.3" font-family="Times,serif" font-size="14.00">+ embaralhar(palavra: String): String</text>
<polygon fill="black" stroke="black" points="70,-402.5 70,-402.5 284,-402.5 284,-402.5 70,-402.5"/>
<polygon fill="none" stroke="black" points="70,-378.5 70,-426.5 284,-426.5 284,-378.5 70,-378.5"/>
</g>
<!-- EmbaralharAleatório1067759703 -->
<g id="node2" class="node"><title>EmbaralharAleatório1067759703</title>
<polygon fill="#ffffff" stroke="none" points="230,-64 16,-64 16,-16 230,-16 230,-64"/>
<text text-anchor="start" x="21" y="-47.8" font-family="Times,serif" font-size="14.00">(C)EmbaralharAleatório</text>
<text text-anchor="start" x="21" y="-24.8" font-family="Times,serif" font-size="14.00">+ embaralhar(palavra: String): String</text>
<polygon fill="black" stroke="black" points="16,-40 16,-40 230,-40 230,-40 16,-40"/>
<polygon fill="none" stroke="black" points="16,-16 16,-64 230,-64 230,-16 16,-16"/>
</g>
<!-- Embaralhador1067759703&#45;&gt;EmbaralharAleatório1067759703 -->
<g id="edge1" class="edge"><title>Embaralhador1067759703&#45;&gt;EmbaralharAleatório1067759703</title>
<path fill="none" stroke="black" d="M159.445,-369.39C136.169,-326.815 98,-257 98,-257 98,-257 98,-82 98,-82 98,-82 103.133,-73.5818 108.747,-64.3744"/>
<polygon fill="none" stroke="black" points="156.439,-371.188 164.307,-378.284 162.581,-367.83 156.439,-371.188"/>
</g>
<!-- EmbaralharInverso1067759703 -->
<g id="node3" class="node"><title>EmbaralharInverso1067759703</title>
<polygon fill="#ffffff" stroke="none" points="462,-64 248,-64 248,-16 462,-16 462,-64"/>
<text text-anchor="start" x="253" y="-47.8" font-family="Times,serif" font-size="14.00">(C)EmbaralharInverso</text>
<text text-anchor="start" x="253" y="-24.8" font-family="Times,serif" font-size="14.00">+ embaralhar(palavra: String): String</text>
<polygon fill="black" stroke="black" points="248,-40 248,-40 462,-40 462,-40 248,-40"/>
<polygon fill="none" stroke="black" points="248,-16 248,-64 462,-64 462,-16 248,-16"/>
</g>
<!-- Embaralhador1067759703&#45;&gt;EmbaralharInverso1067759703 -->
<g id="edge2" class="edge"><title>Embaralhador1067759703&#45;&gt;EmbaralharInverso1067759703</title>
<path fill="none" stroke="black" d="M172.706,-367.975C162.57,-288.833 138,-97 138,-97 138,-97 138,-82 138,-82 138,-82 239,-64 239,-64 239,-64 242.273,-63.3511 247.719,-62.2713"/>
<polygon fill="none" stroke="black" points="169.295,-368.889 174.037,-378.363 176.238,-367.999 169.295,-368.889"/>
</g>
<!-- EmbaralharPrimeiroParDepoisImpar1067759703 -->
<g id="node4" class="node"><title>EmbaralharPrimeiroParDepoisImpar1067759703</title>
<polygon fill="#ffffff" stroke="none" points="710,-64 480,-64 480,-16 710,-16 710,-64"/>
<text text-anchor="start" x="485" y="-47.8" font-family="Times,serif" font-size="14.00">(C)EmbaralharPrimeiroParDepoisImpar</text>
<text text-anchor="start" x="485" y="-24.8" font-family="Times,serif" font-size="14.00">+ embaralhar(palavra: String): String</text>
<polygon fill="black" stroke="black" points="480,-40 480,-40 710,-40 710,-40 480,-40"/>
<polygon fill="none" stroke="black" points="480,-16 480,-64 710,-64 710,-16 480,-16"/>
</g>
<!-- Embaralhador1067759703&#45;&gt;EmbaralharPrimeiroParDepoisImpar1067759703 -->
<g id="edge3" class="edge"><title>Embaralhador1067759703&#45;&gt;EmbaralharPrimeiroParDepoisImpar1067759703</title>
<path fill="none" stroke="black" d="M225.614,-373.142C355.181,-297.561 699,-97 699,-97 699,-97 699,-82 699,-82 699,-82 677.091,-73.3627 653.384,-64.0168"/>
<polygon fill="none" stroke="black" points="223.538,-370.301 216.663,-378.363 227.065,-376.348 223.538,-370.301"/>
</g>
<!-- FabricaDeEmbaralhadores1067759703 -->
<g id="node5" class="node"><title>FabricaDeEmbaralhadores1067759703</title>
<polygon fill="#ffffff" stroke="none" points="438.5,-209 211.5,-209 211.5,-115 438.5,-115 438.5,-209"/>
<text text-anchor="start" x="217" y="-192.8" font-family="Times,serif" font-size="14.00">(C)FabricaDeEmbaralhadores</text>
<text text-anchor="start" x="217" y="-169.8" font-family="Times,serif" font-size="14.00">&#45; &#160;&#160;random: Random [0..1]</text>
<text text-anchor="start" x="217" y="-146.8" font-family="Times,serif" font-size="14.00">+ embaralhador(palavra: String): String</text>
<text text-anchor="start" x="217" y="-123.8" font-family="Times,serif" font-size="14.00">+ embaralhar(palavra: String): String</text>
<polygon fill="black" stroke="black" points="212,-185 212,-185 439,-185 439,-185 212,-185"/>
<polygon fill="black" stroke="black" points="212,-162 212,-162 439,-162 439,-162 212,-162"/>
<polygon fill="none" stroke="black" points="211.5,-115 211.5,-209 438.5,-209 438.5,-115 211.5,-115"/>
</g>
<!-- Embaralhador1067759703&#45;&gt;FabricaDeEmbaralhadores1067759703 -->
<g id="edge4" class="edge"><title>Embaralhador1067759703&#45;&gt;FabricaDeEmbaralhadores1067759703</title>
<path fill="none" stroke="black" d="M196.764,-369.65C222.325,-328.459 267.034,-256.412 296.328,-209.205"/>
<polygon fill="none" stroke="black" points="193.759,-367.855 191.46,-378.197 199.707,-371.546 193.759,-367.855"/>
</g>
<!-- FabricaDeEmbaralhadores1067759703&#45;&gt;EmbaralharAleatório1067759703 -->
<g id="edge5" class="edge"><title>FabricaDeEmbaralhadores1067759703&#45;&gt;EmbaralharAleatório1067759703</title>
<path fill="none" stroke="black" d="M211.262,-120.105C176.377,-107.562 147,-97 147,-97 147,-97 142.245,-85.9042 136.967,-73.5906"/>
<polygon fill="black" stroke="black" points="140.057,-71.9134 132.9,-64.1007 133.623,-74.6709 140.057,-71.9134"/>
<text text-anchor="middle" x="234.5" y="-85.8" font-family="Times,serif" font-size="14.00">embaralhador() &#45;&gt; embaralhar()</text>
</g>
<!-- FabricaDeEmbaralhadores1067759703&#45;&gt;EmbaralharInverso1067759703 -->
<g id="edge6" class="edge"><title>FabricaDeEmbaralhadores1067759703&#45;&gt;EmbaralharInverso1067759703</title>
<path fill="none" stroke="black" d="M325.587,-114.588C325.805,-97.3923 326,-82 326,-82 326,-82 328.814,-78.0211 332.69,-72.5423"/>
<polygon fill="black" stroke="black" points="335.55,-74.5597 338.467,-64.3744 329.835,-70.5174 335.55,-74.5597"/>
<text text-anchor="middle" x="413.5" y="-85.8" font-family="Times,serif" font-size="14.00">embaralhador() &#45;&gt; embaralhar()</text>
</g>
<!-- FabricaDeEmbaralhadores1067759703&#45;&gt;EmbaralharPrimeiroParDepoisImpar1067759703 -->
<g id="edge7" class="edge"><title>FabricaDeEmbaralhadores1067759703&#45;&gt;EmbaralharPrimeiroParDepoisImpar1067759703</title>
<path fill="none" stroke="black" d="M438.949,-119.564C472.785,-107.26 501,-97 501,-97 501,-97 524,-82 524,-82 524,-82 533.79,-76.3464 546.1,-69.2381"/>
<polygon fill="black" stroke="black" points="548.026,-72.1678 554.935,-64.1361 544.525,-66.1059 548.026,-72.1678"/>
<text text-anchor="middle" x="611.5" y="-85.8" font-family="Times,serif" font-size="14.00">embaralhador() &#45;&gt; embaralhar()</text>
</g>
<!-- TesteEmbaralharPalavras1927468837 -->
<g id="node6" class="node"><title>TesteEmbaralharPalavras1927468837</title>
<polygon fill="#ffffff" stroke="none" points="1178,-530 734,-530 734,-275 1178,-275 1178,-530"/>
<text text-anchor="start" x="739" y="-513.3" font-family="Times,serif" font-size="14.00">(C)TesteEmbaralharPalavras</text>
<text text-anchor="start" x="739" y="-490.3" font-family="Times,serif" font-size="14.00"># &#160;&#160;embaralharAleatório: EmbaralharAleatório [0..1]</text>
<text text-anchor="start" x="739" y="-467.3" font-family="Times,serif" font-size="14.00"># &#160;&#160;embaralharInverso: EmbaralharInverso [0..1]</text>
<text text-anchor="start" x="739" y="-444.3" font-family="Times,serif" font-size="14.00"># &#160;&#160;embaralharParesDepoisImpares: EmbaralharPrimeiroParDepoisImpar [0..1]</text>
<text text-anchor="start" x="739" y="-421.3" font-family="Times,serif" font-size="14.00"># &#160;&#160;fabricaDeEmbaralhadores: FabricaDeEmbaralhadores [0..1]</text>
<text text-anchor="start" x="739" y="-398.3" font-family="Times,serif" font-size="14.00"># &#160;&#160;palavra: String [0..1]</text>
<text text-anchor="start" x="739" y="-375.3" font-family="Times,serif" font-size="14.00"># &#160;&#160;random: Random [0..1]</text>
<text text-anchor="start" x="739" y="-352.3" font-family="Times,serif" font-size="14.00">+ testeEmbaralhador()</text>
<text text-anchor="start" x="739" y="-329.3" font-family="Times,serif" font-size="14.00">+ testeEmbaralhadorInverso()</text>
<text text-anchor="start" x="739" y="-306.3" font-family="Times,serif" font-size="14.00">+ testeEmbaralhar()</text>
<text text-anchor="start" x="739" y="-283.3" font-family="Times,serif" font-size="14.00">+ testeEmbaralharParesDepoisImpares()</text>
<polygon fill="black" stroke="black" points="734,-505.5 734,-505.5 1178,-505.5 1178,-505.5 734,-505.5"/>
<polygon fill="black" stroke="black" points="734,-367.5 734,-367.5 1178,-367.5 1178,-367.5 734,-367.5"/>
<polygon fill="none" stroke="black" points="734,-275 734,-530 1178,-530 1178,-275 734,-275"/>
</g>
<!-- TesteEmbaralharPalavras1927468837&#45;&gt;EmbaralharAleatório1067759703 -->
<g id="edge8" class="edge"><title>TesteEmbaralharPalavras1927468837&#45;&gt;EmbaralharAleatório1067759703</title>
<path fill="none" stroke="black" d="M861.523,-274.683C841.361,-247.62 826,-227 826,-227 826,-227 807,-209 807,-209 807,-209 703,-82 703,-82 703,-82 310.337,-66.7674 240.662,-62.982"/>
<polygon fill="black" stroke="black" points="240.497,-59.4626 230.281,-62.2713 240.019,-66.4462 240.497,-59.4626"/>
<text text-anchor="middle" x="863.5" y="-165.8" font-family="Times,serif" font-size="14.00">embaralharAleatório</text>
<text text-anchor="middle" x="863.5" y="-150.8" font-family="Times,serif" font-size="14.00">[0..1]</text>
</g>
<!-- TesteEmbaralharPalavras1927468837&#45;&gt;EmbaralharInverso1067759703 -->
<g id="edge9" class="edge"><title>TesteEmbaralharPalavras1927468837&#45;&gt;EmbaralharInverso1067759703</title>
<path fill="none" stroke="black" d="M941.825,-274.586C933.265,-197.952 924,-115 924,-115 924,-115 821,-82 821,-82 821,-82 531.065,-67.0891 472.394,-63.1064"/>
<polygon fill="black" stroke="black" points="472.535,-59.6062 462.281,-62.2713 471.959,-66.5825 472.535,-59.6062"/>
<text text-anchor="middle" x="985.5" y="-165.8" font-family="Times,serif" font-size="14.00">embaralharInverso</text>
<text text-anchor="middle" x="985.5" y="-150.8" font-family="Times,serif" font-size="14.00">[0..1]</text>
</g>
<!-- TesteEmbaralharPalavras1927468837&#45;&gt;EmbaralharPrimeiroParDepoisImpar1067759703 -->
<g id="edge10" class="edge"><title>TesteEmbaralharPalavras1927468837&#45;&gt;EmbaralharPrimeiroParDepoisImpar1067759703</title>
<path fill="none" stroke="black" d="M1026.33,-274.978C1046.43,-238.815 1063,-209 1063,-209 1063,-209 1063,-115 1063,-115 1063,-115 970,-82 970,-82 970,-82 829.221,-66.6081 720.176,-54.6859"/>
<polygon fill="black" stroke="black" points="720.382,-51.1877 710.061,-53.58 719.621,-58.1462 720.382,-51.1877"/>
<text text-anchor="middle" x="1150" y="-165.8" font-family="Times,serif" font-size="14.00">embaralharParesDepoisImpares</text>
<text text-anchor="middle" x="1150" y="-150.8" font-family="Times,serif" font-size="14.00">[0..1]</text>
</g>
<!-- TesteEmbaralharPalavras1927468837&#45;&gt;FabricaDeEmbaralhadores1067759703 -->
<g id="edge11" class="edge"><title>TesteEmbaralharPalavras1927468837&#45;&gt;FabricaDeEmbaralhadores1067759703</title>
<path fill="none" stroke="black" d="M735.592,-274.813C727.021,-269.886 722,-267 722,-267 722,-267 565.027,-225.879 448.492,-195.351"/>
<polygon fill="black" stroke="black" points="449.325,-191.951 438.764,-192.802 447.551,-198.722 449.325,-191.951"/>
<text text-anchor="middle" x="751" y="-245.8" font-family="Times,serif" font-size="14.00">fabricaDeEmbaralhadores</text>
<text text-anchor="middle" x="751" y="-230.8" font-family="Times,serif" font-size="14.00">[0..1]</text>
</g>
</g>
</svg>
