<?xml version="1.0" encoding="UTF-8" standalone="no"?>
<!DOCTYPE svg PUBLIC "-//W3C//DTD SVG 1.1//EN"
 "http://www.w3.org/Graphics/SVG/1.1/DTD/svg11.dtd">
<!-- Generated by graphviz version 2.38.0 (20140413.2041)
 -->
<!-- Title: g Pages: 1 -->
<svg width="673pt" height="712pt"
 viewBox="0.00 0.00 673.00 712.00" xmlns="http://www.w3.org/2000/svg" xmlns:xlink="http://www.w3.org/1999/xlink">
<g id="graph0" class="graph" transform="scale(1 1) rotate(0) translate(4 708)">
<title>g</title>
<polygon fill="white" stroke="none" points="-4,4 -4,-708 669,-708 669,4 -4,4"/>
<g id="clust1" class="cluster"><title>cluster_1067759703</title>
<polygon fill="#ececec" stroke="black" points="48,-8 48,-354 526,-354 526,-8 48,-8"/>
<text text-anchor="middle" x="111" y="-338.8" font-family="Times,serif" font-size="14.00">EmbaralharPalavras</text>
</g>
<g id="clust2" class="cluster"><title>cluster_1527553641</title>
<polygon fill="#ececec" stroke="black" points="8,-402 8,-696 468,-696 468,-402 8,-402"/>
<text text-anchor="middle" x="67.5" y="-680.8" font-family="Times,serif" font-size="14.00">EmaralharPalavras</text>
</g>
<!-- EmbaralharAleatório1067759703 -->
<g id="node1" class="node"><title>EmbaralharAleatório1067759703</title>
<polygon fill="#ffffff" stroke="none" points="458,-323 244,-323 244,-275 458,-275 458,-323"/>
<text text-anchor="start" x="249" y="-306.8" font-family="Times,serif" font-size="14.00">(C)EmbaralharAleatório</text>
<text text-anchor="start" x="249" y="-283.8" font-family="Times,serif" font-size="14.00">+ embaralhar(palavra: String): String</text>
<polygon fill="black" stroke="black" points="244,-299 244,-299 458,-299 458,-299 244,-299"/>
<polygon fill="none" stroke="black" points="244,-275 244,-323 458,-323 458,-275 244,-275"/>
</g>
<!-- EmbaralharInverso1067759703 -->
<g id="node2" class="node"><title>EmbaralharInverso1067759703</title>
<polygon fill="#ffffff" stroke="none" points="270,-64 56,-64 56,-16 270,-16 270,-64"/>
<text text-anchor="start" x="61" y="-47.8" font-family="Times,serif" font-size="14.00">(C)EmbaralharInverso</text>
<text text-anchor="start" x="61" y="-24.8" font-family="Times,serif" font-size="14.00">+ embaralhar(palavra: String): String</text>
<polygon fill="black" stroke="black" points="56,-40 56,-40 270,-40 270,-40 56,-40"/>
<polygon fill="none" stroke="black" points="56,-16 56,-64 270,-64 270,-16 56,-16"/>
</g>
<!-- EmbaralharAleatório1067759703&#45;&gt;EmbaralharInverso1067759703 -->
<g id="edge1" class="edge"><title>EmbaralharAleatório1067759703&#45;&gt;EmbaralharInverso1067759703</title>
<path fill="none" stroke="black" d="M245.46,-274.983C202.605,-265.637 163,-257 163,-257 163,-257 108,-97 108,-97 108,-97 108,-82 108,-82 108,-82 119.488,-73.436 131.964,-64.1361"/>
</g>
<!-- EmbaralharPrimeiroParDepoisImpar1067759703 -->
<g id="node3" class="node"><title>EmbaralharPrimeiroParDepoisImpar1067759703</title>
<polygon fill="#ffffff" stroke="none" points="518,-64 288,-64 288,-16 518,-16 518,-64"/>
<text text-anchor="start" x="293" y="-47.8" font-family="Times,serif" font-size="14.00">(C)EmbaralharPrimeiroParDepoisImpar</text>
<text text-anchor="start" x="293" y="-24.8" font-family="Times,serif" font-size="14.00">+ embaralhar(palavra: String): String</text>
<polygon fill="black" stroke="black" points="288,-40 288,-40 518,-40 518,-40 288,-40"/>
<polygon fill="none" stroke="black" points="288,-16 288,-64 518,-64 518,-16 288,-16"/>
</g>
<!-- EmbaralharAleatório1067759703&#45;&gt;EmbaralharPrimeiroParDepoisImpar1067759703 -->
<g id="edge2" class="edge"><title>EmbaralharAleatório1067759703&#45;&gt;EmbaralharPrimeiroParDepoisImpar1067759703</title>
<path fill="none" stroke="black" d="M369.469,-274.943C411.758,-222.147 512,-97 512,-97 512,-97 512,-82 512,-82 512,-82 489.037,-73.3627 464.191,-64.0168"/>
</g>
<!-- FabricaDeEmbaralhadores1067759703 -->
<g id="node4" class="node"><title>FabricaDeEmbaralhadores1067759703</title>
<polygon fill="#ffffff" stroke="none" points="386.5,-209 159.5,-209 159.5,-115 386.5,-115 386.5,-209"/>
<text text-anchor="start" x="165" y="-192.8" font-family="Times,serif" font-size="14.00">(C)FabricaDeEmbaralhadores</text>
<text text-anchor="start" x="165" y="-169.8" font-family="Times,serif" font-size="14.00">&#45; &#160;&#160;random: Random [0..1]</text>
<text text-anchor="start" x="165" y="-146.8" font-family="Times,serif" font-size="14.00">+ embaralhador(palavra: String): String</text>
<text text-anchor="start" x="165" y="-123.8" font-family="Times,serif" font-size="14.00">+ embaralhar(palavra: String): String</text>
<polygon fill="black" stroke="black" points="160,-185 160,-185 387,-185 387,-185 160,-185"/>
<polygon fill="black" stroke="black" points="160,-162 160,-162 387,-162 387,-162 160,-162"/>
<polygon fill="none" stroke="black" points="159.5,-115 159.5,-209 386.5,-209 386.5,-115 159.5,-115"/>
</g>
<!-- EmbaralharAleatório1067759703&#45;&gt;FabricaDeEmbaralhadores1067759703 -->
<g id="edge3" class="edge"><title>EmbaralharAleatório1067759703&#45;&gt;FabricaDeEmbaralhadores1067759703</title>
<path fill="none" stroke="black" d="M342.479,-274.752C338.905,-254.045 337,-227 337,-227 337,-227 328.177,-219.265 317.044,-209.172"/>
</g>
<!-- FabricaDeEmbaralhadores1067759703&#45;&gt;EmbaralharAleatório1067759703 -->
<g id="edge4" class="edge"><title>FabricaDeEmbaralhadores1067759703&#45;&gt;EmbaralharAleatório1067759703</title>
<path fill="none" stroke="black" d="M334.287,-209.172C346.177,-219.265 355,-227 355,-227 355,-227 356.905,-254.045 356.247,-274.752"/>
</g>
<!-- FabricaDeEmbaralhadores1067759703&#45;&gt;EmbaralharAleatório1067759703 -->
<g id="edge5" class="edge"><title>FabricaDeEmbaralhadores1067759703&#45;&gt;EmbaralharAleatório1067759703</title>
<path fill="none" stroke="black" d="M196.809,-209.002C179.956,-219.177 167,-227 167,-227 167,-227 167,-257 167,-257 167,-257 199.664,-264.278 237.467,-272.702"/>
<polygon fill="black" stroke="black" points="237.183,-276.224 247.705,-274.983 238.706,-269.392 237.183,-276.224"/>
<text text-anchor="middle" x="254.5" y="-238.3" font-family="Times,serif" font-size="14.00">embaralhador() &#45;&gt; embaralhar()</text>
</g>
<!-- FabricaDeEmbaralhadores1067759703&#45;&gt;EmbaralharInverso1067759703 -->
<g id="edge6" class="edge"><title>FabricaDeEmbaralhadores1067759703&#45;&gt;EmbaralharInverso1067759703</title>
<path fill="none" stroke="black" d="M159.435,-115.856C132.793,-105.266 112,-97 112,-97 112,-97 112,-82 112,-82 112,-82 122.653,-73.436 134.221,-64.1361"/>
</g>
<!-- FabricaDeEmbaralhadores1067759703&#45;&gt;EmbaralharInverso1067759703 -->
<g id="edge7" class="edge"><title>FabricaDeEmbaralhadores1067759703&#45;&gt;EmbaralharInverso1067759703</title>
<path fill="none" stroke="black" d="M171.652,-114.998C149.234,-104.823 132,-97 132,-97 132,-97 132,-82 132,-82 132,-82 135.008,-78.0211 139.151,-72.5423"/>
<polygon fill="black" stroke="black" points="142.087,-74.4619 145.327,-64.3744 136.504,-70.2401 142.087,-74.4619"/>
<text text-anchor="middle" x="219.5" y="-85.8" font-family="Times,serif" font-size="14.00">embaralhador() &#45;&gt; embaralhar()</text>
</g>
<!-- FabricaDeEmbaralhadores1067759703&#45;&gt;EmbaralharPrimeiroParDepoisImpar1067759703 -->
<g id="edge8" class="edge"><title>FabricaDeEmbaralhadores1067759703&#45;&gt;EmbaralharPrimeiroParDepoisImpar1067759703</title>
<path fill="none" stroke="black" d="M298.849,-114.588C308.427,-97.3923 317,-82 317,-82 317,-82 335.117,-73.3627 354.721,-64.0168"/>
</g>
<!-- FabricaDeEmbaralhadores1067759703&#45;&gt;EmbaralharPrimeiroParDepoisImpar1067759703 -->
<g id="edge9" class="edge"><title>FabricaDeEmbaralhadores1067759703&#45;&gt;EmbaralharPrimeiroParDepoisImpar1067759703</title>
<path fill="none" stroke="black" d="M310.599,-114.588C324.53,-97.3923 337,-82 337,-82 337,-82 345.927,-76.4546 357.214,-69.4427"/>
<polygon fill="black" stroke="black" points="359.109,-72.386 365.757,-64.1361 355.415,-66.4399 359.109,-72.386"/>
<text text-anchor="middle" x="424.5" y="-85.8" font-family="Times,serif" font-size="14.00">embaralhador() &#45;&gt; embaralhar()</text>
</g>
<!-- TesteEmbaralharPalavras1927468837 -->
<g id="node5" class="node"><title>TesteEmbaralharPalavras1927468837</title>
<polygon fill="#ffffff" stroke="none" points="460,-665 16,-665 16,-410 460,-410 460,-665"/>
<text text-anchor="start" x="21" y="-648.3" font-family="Times,serif" font-size="14.00">(C)TesteEmbaralharPalavras</text>
<text text-anchor="start" x="21" y="-625.3" font-family="Times,serif" font-size="14.00"># &#160;&#160;embaralharAleatório: EmbaralharAleatório [0..1]</text>
<text text-anchor="start" x="21" y="-602.3" font-family="Times,serif" font-size="14.00"># &#160;&#160;embaralharInverso: EmbaralharInverso [0..1]</text>
<text text-anchor="start" x="21" y="-579.3" font-family="Times,serif" font-size="14.00"># &#160;&#160;embaralharParesDepoisImpares: EmbaralharPrimeiroParDepoisImpar [0..1]</text>
<text text-anchor="start" x="21" y="-556.3" font-family="Times,serif" font-size="14.00"># &#160;&#160;fabricaDeEmbaralhadores: FabricaDeEmbaralhadores [0..1]</text>
<text text-anchor="start" x="21" y="-533.3" font-family="Times,serif" font-size="14.00"># &#160;&#160;palavra: String [0..1]</text>
<text text-anchor="start" x="21" y="-510.3" font-family="Times,serif" font-size="14.00"># &#160;&#160;random: Random [0..1]</text>
<text text-anchor="start" x="21" y="-487.3" font-family="Times,serif" font-size="14.00">+ testeEmbaralhador()</text>
<text text-anchor="start" x="21" y="-464.3" font-family="Times,serif" font-size="14.00">+ testeEmbaralhadorInverso()</text>
<text text-anchor="start" x="21" y="-441.3" font-family="Times,serif" font-size="14.00">+ testeEmbaralhar()</text>
<text text-anchor="start" x="21" y="-418.3" font-family="Times,serif" font-size="14.00">+ testeEmbaralharParesDepoisImpares()</text>
<polygon fill="black" stroke="black" points="16,-640.5 16,-640.5 460,-640.5 460,-640.5 16,-640.5"/>
<polygon fill="black" stroke="black" points="16,-502.5 16,-502.5 460,-502.5 460,-502.5 16,-502.5"/>
<polygon fill="none" stroke="black" points="16,-410 16,-665 460,-665 460,-410 16,-410"/>
</g>
<!-- TesteEmbaralharPalavras1927468837&#45;&gt;EmbaralharAleatório1067759703 -->
<g id="edge10" class="edge"><title>TesteEmbaralharPalavras1927468837&#45;&gt;EmbaralharAleatório1067759703</title>
<path fill="none" stroke="black" d="M298.47,-409.942C312.241,-381.12 325.696,-352.959 335.541,-332.355"/>
<polygon fill="black" stroke="black" points="338.78,-333.693 339.934,-323.161 332.464,-330.675 338.78,-333.693"/>
<text text-anchor="middle" x="377.5" y="-380.8" font-family="Times,serif" font-size="14.00">embaralharAleatório</text>
<text text-anchor="middle" x="377.5" y="-365.8" font-family="Times,serif" font-size="14.00">[0..1]</text>
</g>
<!-- TesteEmbaralharPalavras1927468837&#45;&gt;EmbaralharInverso1067759703 -->
<g id="edge11" class="edge"><title>TesteEmbaralharPalavras1927468837&#45;&gt;EmbaralharInverso1067759703</title>
<path fill="none" stroke="black" d="M114.289,-409.719C103.747,-398.915 97,-392 97,-392 97,-392 13,-257 13,-257 13,-257 13,-227 13,-227 13,-227 104,-82 104,-82 104,-82 111.673,-76.6679 121.485,-69.8495"/>
<polygon fill="black" stroke="black" points="123.492,-72.7168 129.707,-64.1361 119.497,-66.9685 123.492,-72.7168"/>
<text text-anchor="middle" x="64.5" y="-245.8" font-family="Times,serif" font-size="14.00">embaralharInverso</text>
<text text-anchor="middle" x="64.5" y="-230.8" font-family="Times,serif" font-size="14.00">[0..1]</text>
</g>
<!-- TesteEmbaralharPalavras1927468837&#45;&gt;EmbaralharPrimeiroParDepoisImpar1067759703 -->
<g id="edge12" class="edge"><title>TesteEmbaralharPalavras1927468837&#45;&gt;EmbaralharPrimeiroParDepoisImpar1067759703</title>
<path fill="none" stroke="black" d="M413.476,-409.719C428.43,-398.915 438,-392 438,-392 438,-392 467,-354 467,-354 467,-354 517,-97 517,-97 517,-97 517,-82 517,-82 517,-82 498.613,-75.387 476.607,-67.4728"/>
<polygon fill="black" stroke="black" points="477.592,-64.1077 466.998,-64.0168 475.223,-70.6946 477.592,-64.1077"/>
<text text-anchor="middle" x="578" y="-245.8" font-family="Times,serif" font-size="14.00">embaralharParesDepoisImpares</text>
<text text-anchor="middle" x="578" y="-230.8" font-family="Times,serif" font-size="14.00">[0..1]</text>
</g>
<!-- TesteEmbaralharPalavras1927468837&#45;&gt;FabricaDeEmbaralhadores1067759703 -->
<g id="edge13" class="edge"><title>TesteEmbaralharPalavras1927468837&#45;&gt;FabricaDeEmbaralhadores1067759703</title>
<path fill="none" stroke="black" d="M137.293,-409.748C112.55,-378.606 93,-354 93,-354 93,-354 93,-275 93,-275 93,-275 163,-227 163,-227 163,-227 172.047,-221.736 184.952,-214.228"/>
<polygon fill="black" stroke="black" points="187.051,-217.056 193.934,-209.002 183.53,-211.006 187.051,-217.056"/>
<text text-anchor="middle" x="164" y="-302.8" font-family="Times,serif" font-size="14.00">fabricaDeEmbaralhadores</text>
<text text-anchor="middle" x="164" y="-287.8" font-family="Times,serif" font-size="14.00">[0..1]</text>
</g>
</g>
</svg>
