<?xml version="1.0" encoding="UTF-8" standalone="no"?>
<!DOCTYPE svg PUBLIC "-//W3C//DTD SVG 1.1//EN"
 "http://www.w3.org/Graphics/SVG/1.1/DTD/svg11.dtd">
<!-- Generated by graphviz version 2.38.0 (20140413.2041)
 -->
<!-- Title: g Pages: 1 -->
<svg width="736pt" height="998pt"
 viewBox="0.00 0.00 736.00 998.00" xmlns="http://www.w3.org/2000/svg" xmlns:xlink="http://www.w3.org/1999/xlink">
<g id="graph0" class="graph" transform="scale(1 1) rotate(0) translate(4 994)">
<title>g</title>
<polygon fill="white" stroke="none" points="-4,4 -4,-994 732,-994 732,4 -4,4"/>
<g id="clust1" class="cluster"><title>cluster_136677366</title>
<polygon fill="#ececec" stroke="black" points="391,-8 391,-141 655,-141 655,-8 391,-8"/>
<text text-anchor="middle" x="437.5" y="-125.8" font-family="Times,serif" font-size="14.00">FontePalavras</text>
</g>
<g id="clust2" class="cluster"><title>cluster_2314509</title>
<polygon fill="#ececec" stroke="black" points="8,-189 8,-982 694,-982 694,-189 8,-189"/>
<text text-anchor="middle" x="29" y="-966.8" font-family="Times,serif" font-size="14.00">Jogo</text>
</g>
<!-- BancoDePalavras136677366 -->
<g id="node1" class="node"><title>BancoDePalavras136677366</title>
<polygon fill="#ffffff" stroke="none" points="646.5,-110 399.5,-110 399.5,-16 646.5,-16 646.5,-110"/>
<text text-anchor="start" x="405" y="-93.8" font-family="Times,serif" font-size="14.00">(C)BancoDePalavras</text>
<text text-anchor="start" x="405" y="-70.8" font-family="Times,serif" font-size="14.00">&#45; &#160;&#160;arquivo: String [0..1]</text>
<text text-anchor="start" x="405" y="-47.8" font-family="Times,serif" font-size="14.00">&#45; &#160;&#160;palavras: List&lt;String&gt; [0..*]</text>
<text text-anchor="start" x="405" y="-24.8" font-family="Times,serif" font-size="14.00">&#45; lerArquivo(arquivo: String): List&lt;String&gt;</text>
<polygon fill="black" stroke="black" points="400,-86 400,-86 647,-86 647,-86 400,-86"/>
<polygon fill="black" stroke="black" points="400,-40 400,-40 647,-40 647,-40 400,-40"/>
<polygon fill="none" stroke="black" points="399.5,-16 399.5,-110 646.5,-110 646.5,-16 399.5,-16"/>
</g>
<!-- CincoChances2314509 -->
<g id="node2" class="node"><title>CincoChances2314509</title>
<polygon fill="#ffffff" stroke="none" points="686,-951 360,-951 360,-581 686,-581 686,-951"/>
<text text-anchor="start" x="365" y="-934.8" font-family="Times,serif" font-size="14.00">(C)CincoChances</text>
<text text-anchor="start" x="365" y="-911.8" font-family="Times,serif" font-size="14.00">&#45; &#160;&#160;arquivo: String [0..1]</text>
<text text-anchor="start" x="365" y="-888.8" font-family="Times,serif" font-size="14.00">&#45; &#160;&#160;banco: BancoDePalavras [0..1]</text>
<text text-anchor="start" x="365" y="-865.8" font-family="Times,serif" font-size="14.00">&#45; &#160;&#160;gameover: boolean [1]</text>
<text text-anchor="start" x="365" y="-842.8" font-family="Times,serif" font-size="14.00">&#45; &#160;&#160;passouDeFase: boolean [1]</text>
<text text-anchor="start" x="365" y="-819.8" font-family="Times,serif" font-size="14.00">&#45; &#160;&#160;pontos: int [1]</text>
<text text-anchor="start" x="365" y="-796.8" font-family="Times,serif" font-size="14.00">&#45; &#160;&#160;resultadoRespostaDavez: String [0..1]</text>
<text text-anchor="start" x="365" y="-773.8" font-family="Times,serif" font-size="14.00">&#45; &#160;&#160;tentativas: int [1]</text>
<text text-anchor="start" x="365" y="-750.8" font-family="Times,serif" font-size="14.00">+ acabouJogo(): Boolean</text>
<text text-anchor="start" x="365" y="-727.8" font-family="Times,serif" font-size="14.00">+ acertouResposta(): Boolean</text>
<text text-anchor="start" x="365" y="-704.8" font-family="Times,serif" font-size="14.00">+ instrucoes(): String</text>
<text text-anchor="start" x="365" y="-681.8" font-family="Times,serif" font-size="14.00">+ modoDeJogo(): String</text>
<text text-anchor="start" x="365" y="-658.8" font-family="Times,serif" font-size="14.00">+ palavraDaVez(): String</text>
<text text-anchor="start" x="365" y="-635.8" font-family="Times,serif" font-size="14.00">+ passouDeFase(): String</text>
<text text-anchor="start" x="365" y="-612.8" font-family="Times,serif" font-size="14.00">+ respostaDaVez(palavra: String, resposta: String): String</text>
<text text-anchor="start" x="365" y="-589.8" font-family="Times,serif" font-size="14.00">+ resultadoFinal(): String</text>
<polygon fill="black" stroke="black" points="360,-927 360,-927 686,-927 686,-927 360,-927"/>
<polygon fill="black" stroke="black" points="360,-766 360,-766 686,-766 686,-766 360,-766"/>
<polygon fill="none" stroke="black" points="360,-581 360,-951 686,-951 686,-581 360,-581"/>
</g>
<!-- CincoChances2314509&#45;&gt;BancoDePalavras136677366 -->
<g id="edge1" class="edge"><title>CincoChances2314509&#45;&gt;BancoDePalavras136677366</title>
<path fill="none" stroke="black" d="M666.211,-580.99C683.394,-558.913 695,-544 695,-544 695,-544 695,-189 695,-189 695,-189 641.878,-150.394 594.679,-116.092"/>
<polygon fill="black" stroke="black" points="596.705,-113.238 586.558,-110.19 592.59,-118.9 596.705,-113.238"/>
<text text-anchor="middle" x="711.5" y="-374.3" font-family="Times,serif" font-size="14.00">banco</text>
<text text-anchor="middle" x="711.5" y="-359.3" font-family="Times,serif" font-size="14.00">[0..1]</text>
</g>
<!-- DeDezAcaba2314509 -->
<g id="node3" class="node"><title>DeDezAcaba2314509</title>
<polygon fill="#ffffff" stroke="none" points="342,-544 16,-544 16,-197 342,-197 342,-544"/>
<text text-anchor="start" x="21" y="-527.3" font-family="Times,serif" font-size="14.00">(C)DeDezAcaba</text>
<text text-anchor="start" x="21" y="-504.3" font-family="Times,serif" font-size="14.00">&#45; &#160;&#160;arquivo: String [0..1]</text>
<text text-anchor="start" x="21" y="-481.3" font-family="Times,serif" font-size="14.00">&#45; &#160;&#160;banco: BancoDePalavras [0..1]</text>
<text text-anchor="start" x="21" y="-458.3" font-family="Times,serif" font-size="14.00">&#45; &#160;&#160;passouDeFase: boolean [1]</text>
<text text-anchor="start" x="21" y="-435.3" font-family="Times,serif" font-size="14.00">&#45; &#160;&#160;pontos: int [1]</text>
<text text-anchor="start" x="21" y="-412.3" font-family="Times,serif" font-size="14.00">&#45; &#160;&#160;tentativas: int [1]</text>
<text text-anchor="start" x="21" y="-389.3" font-family="Times,serif" font-size="14.00">&#45; &#160;&#160;terminou: boolean [1]</text>
<text text-anchor="start" x="21" y="-366.3" font-family="Times,serif" font-size="14.00">+ acabouJogo(): Boolean</text>
<text text-anchor="start" x="21" y="-343.3" font-family="Times,serif" font-size="14.00">+ acertouResposta(): Boolean</text>
<text text-anchor="start" x="21" y="-320.3" font-family="Times,serif" font-size="14.00">+ instrucoes(): String</text>
<text text-anchor="start" x="21" y="-297.3" font-family="Times,serif" font-size="14.00">+ modoDeJogo(): String</text>
<text text-anchor="start" x="21" y="-274.3" font-family="Times,serif" font-size="14.00">+ palavraDaVez(): String</text>
<text text-anchor="start" x="21" y="-251.3" font-family="Times,serif" font-size="14.00">+ passouDeFase(): String</text>
<text text-anchor="start" x="21" y="-228.3" font-family="Times,serif" font-size="14.00">+ respostaDaVez(palavra: String, resposta: String): String</text>
<text text-anchor="start" x="21" y="-205.3" font-family="Times,serif" font-size="14.00">+ resultadoFinal(): String</text>
<polygon fill="black" stroke="black" points="16,-519.5 16,-519.5 342,-519.5 342,-519.5 16,-519.5"/>
<polygon fill="black" stroke="black" points="16,-381.5 16,-381.5 342,-381.5 342,-381.5 16,-381.5"/>
<polygon fill="none" stroke="black" points="16,-197 16,-544 342,-544 342,-197 16,-197"/>
</g>
<!-- CincoChances2314509&#45;&gt;DeDezAcaba2314509 -->
<g id="edge2" class="edge"><title>CincoChances2314509&#45;&gt;DeDezAcaba2314509</title>
<path fill="none" stroke="black" d="M362.079,-580.923C351.325,-568.622 340.513,-556.254 329.812,-544.013"/>
</g>
<!-- ErrouAcabou2314509 -->
<g id="node4" class="node"><title>ErrouAcabou2314509</title>
<polygon fill="#ffffff" stroke="none" points="686,-544 360,-544 360,-197 686,-197 686,-544"/>
<text text-anchor="start" x="365" y="-527.3" font-family="Times,serif" font-size="14.00">(C)ErrouAcabou</text>
<text text-anchor="start" x="365" y="-504.3" font-family="Times,serif" font-size="14.00">&#45; &#160;&#160;arquivo: String [0..1]</text>
<text text-anchor="start" x="365" y="-481.3" font-family="Times,serif" font-size="14.00">&#45; &#160;&#160;banco: BancoDePalavras [0..1]</text>
<text text-anchor="start" x="365" y="-458.3" font-family="Times,serif" font-size="14.00">&#45; &#160;&#160;errou: boolean [1]</text>
<text text-anchor="start" x="365" y="-435.3" font-family="Times,serif" font-size="14.00">&#45; &#160;&#160;pontos: int [1]</text>
<text text-anchor="start" x="365" y="-412.3" font-family="Times,serif" font-size="14.00">&#45; &#160;&#160;resultadoRespostaDavez: String [0..1]</text>
<text text-anchor="start" x="365" y="-389.3" font-family="Times,serif" font-size="14.00">&#45; &#160;&#160;tentativas: int [1]</text>
<text text-anchor="start" x="365" y="-366.3" font-family="Times,serif" font-size="14.00">+ acabouJogo(): Boolean</text>
<text text-anchor="start" x="365" y="-343.3" font-family="Times,serif" font-size="14.00">+ acertouResposta(): Boolean</text>
<text text-anchor="start" x="365" y="-320.3" font-family="Times,serif" font-size="14.00">+ instrucoes(): String</text>
<text text-anchor="start" x="365" y="-297.3" font-family="Times,serif" font-size="14.00">+ modoDeJogo(): String</text>
<text text-anchor="start" x="365" y="-274.3" font-family="Times,serif" font-size="14.00">+ palavraDaVez(): String</text>
<text text-anchor="start" x="365" y="-251.3" font-family="Times,serif" font-size="14.00">+ passouDeFase(): String</text>
<text text-anchor="start" x="365" y="-228.3" font-family="Times,serif" font-size="14.00">+ respostaDaVez(palavra: String, resposta: String): String</text>
<text text-anchor="start" x="365" y="-205.3" font-family="Times,serif" font-size="14.00">+ resultadoFinal(): String</text>
<polygon fill="black" stroke="black" points="360,-519.5 360,-519.5 686,-519.5 686,-519.5 360,-519.5"/>
<polygon fill="black" stroke="black" points="360,-381.5 360,-381.5 686,-381.5 686,-381.5 360,-381.5"/>
<polygon fill="none" stroke="black" points="360,-197 360,-544 686,-544 686,-197 360,-197"/>
</g>
<!-- CincoChances2314509&#45;&gt;ErrouAcabou2314509 -->
<g id="edge3" class="edge"><title>CincoChances2314509&#45;&gt;ErrouAcabou2314509</title>
<path fill="none" stroke="black" d="M523,-580.923C523,-568.622 523,-556.254 523,-544.013"/>
</g>
<!-- DeDezAcaba2314509&#45;&gt;BancoDePalavras136677366 -->
<g id="edge4" class="edge"><title>DeDezAcaba2314509&#45;&gt;BancoDePalavras136677366</title>
<path fill="none" stroke="black" d="M342.234,-198.199C347.785,-192.374 351,-189 351,-189 351,-189 404.122,-150.394 451.321,-116.092"/>
<polygon fill="black" stroke="black" points="453.41,-118.9 459.442,-110.19 449.295,-113.238 453.41,-118.9"/>
<text text-anchor="middle" x="417.5" y="-167.8" font-family="Times,serif" font-size="14.00">banco</text>
<text text-anchor="middle" x="417.5" y="-152.8" font-family="Times,serif" font-size="14.00">[0..1]</text>
</g>
<!-- ErrouAcabou2314509&#45;&gt;BancoDePalavras136677366 -->
<g id="edge5" class="edge"><title>ErrouAcabou2314509&#45;&gt;BancoDePalavras136677366</title>
<path fill="none" stroke="black" d="M523,-196.664C523,-169.042 523,-142.311 523,-120.17"/>
<polygon fill="black" stroke="black" points="526.5,-120.011 523,-110.011 519.5,-120.011 526.5,-120.011"/>
<text text-anchor="middle" x="539.5" y="-167.8" font-family="Times,serif" font-size="14.00">banco</text>
<text text-anchor="middle" x="539.5" y="-152.8" font-family="Times,serif" font-size="14.00">[0..1]</text>
</g>
</g>
</svg>
