<?xml version="1.0" encoding="UTF-8" standalone="no"?>
<!DOCTYPE svg PUBLIC "-//W3C//DTD SVG 1.1//EN"
 "http://www.w3.org/Graphics/SVG/1.1/DTD/svg11.dtd">
<!-- Generated by graphviz version 2.38.0 (20140413.2041)
 -->
<!-- Title: g Pages: 1 -->
<svg width="270pt" height="134pt"
 viewBox="0.00 0.00 270.00 134.00" xmlns="http://www.w3.org/2000/svg" xmlns:xlink="http://www.w3.org/1999/xlink">
<g id="graph0" class="graph" transform="scale(1 1) rotate(0) translate(4 130)">
<title>g</title>
<polygon fill="white" stroke="none" points="-4,4 -4,-130 266,-130 266,4 -4,4"/>
<g id="clust1" class="cluster"><title>cluster_2314509</title>
<polygon fill="#ececec" stroke="black" points="8,-8 8,-118 254,-118 254,-8 8,-8"/>
<text text-anchor="middle" x="29" y="-102.8" font-family="Times,serif" font-size="14.00">Jogo</text>
</g>
<!-- FabricaMecanicaDeJogo2314509 -->
<g id="node1" class="node"><title>FabricaMecanicaDeJogo2314509</title>
<polygon fill="#ffffff" stroke="none" points="246,-87 16,-87 16,-16 246,-16 246,-87"/>
<text text-anchor="start" x="21" y="-70.3" font-family="Times,serif" font-size="14.00">(C)FabricaMecanicaDeJogo</text>
<text text-anchor="start" x="21" y="-47.3" font-family="Times,serif" font-size="14.00">&#45; Aleatorio(): MecanicaDoJogo</text>
<text text-anchor="start" x="21" y="-24.3" font-family="Times,serif" font-size="14.00">+ getJogo(opcao: int): MecanicaDoJogo</text>
<polygon fill="black" stroke="black" points="16,-62.5 16,-62.5 246,-62.5 246,-62.5 16,-62.5"/>
<polygon fill="none" stroke="black" points="16,-16 16,-87 246,-87 246,-16 16,-16"/>
</g>
</g>
</svg>
