<?xml version="1.0" encoding="UTF-8" standalone="no"?>
<!DOCTYPE svg PUBLIC "-//W3C//DTD SVG 1.1//EN"
 "http://www.w3.org/Graphics/SVG/1.1/DTD/svg11.dtd">
<!-- Generated by graphviz version 2.38.0 (20140413.2041)
 -->
<!-- Title: g Pages: 1 -->
<svg width="1054pt" height="860pt"
 viewBox="0.00 0.00 1054.00 860.00" xmlns="http://www.w3.org/2000/svg" xmlns:xlink="http://www.w3.org/1999/xlink">
<g id="graph0" class="graph" transform="scale(1 1) rotate(0) translate(4 856)">
<title>g</title>
<polygon fill="white" stroke="none" points="-4,4 -4,-856 1050,-856 1050,4 -4,4"/>
<g id="clust1" class="cluster"><title>cluster_136677366</title>
<polygon fill="#ececec" stroke="black" points="391,-8 391,-141 655,-141 655,-8 391,-8"/>
<text text-anchor="middle" x="437.5" y="-125.8" font-family="Times,serif" font-size="14.00">FontePalavras</text>
</g>
<g id="clust2" class="cluster"><title>cluster_2314509</title>
<polygon fill="#ececec" stroke="black" points="8,-189 8,-844 1038,-844 1038,-189 8,-189"/>
<text text-anchor="middle" x="29" y="-828.8" font-family="Times,serif" font-size="14.00">Jogo</text>
</g>
<!-- BancoDePalavras136677366 -->
<g id="node1" class="node"><title>BancoDePalavras136677366</title>
<polygon fill="#ffffff" stroke="none" points="646.5,-110 399.5,-110 399.5,-16 646.5,-16 646.5,-110"/>
<text text-anchor="start" x="405" y="-93.8" font-family="Times,serif" font-size="14.00">(C)BancoDePalavras</text>
<text text-anchor="start" x="405" y="-70.8" font-family="Times,serif" font-size="14.00">&#45; &#160;&#160;arquivo: String [0..1]</text>
<text text-anchor="start" x="405" y="-47.8" font-family="Times,serif" font-size="14.00">&#45; &#160;&#160;palavras: List&lt;String&gt; [0..*]</text>
<text text-anchor="start" x="405" y="-24.8" font-family="Times,serif" font-size="14.00">&#45; lerArquivo(arquivo: String): List&lt;String&gt;</text>
<polygon fill="black" stroke="black" points="400,-86 400,-86 647,-86 647,-86 400,-86"/>
<polygon fill="black" stroke="black" points="400,-40 400,-40 647,-40 647,-40 400,-40"/>
<polygon fill="none" stroke="black" points="399.5,-16 399.5,-110 646.5,-110 646.5,-16 399.5,-16"/>
</g>
<!-- CincoChances2314509 -->
<g id="node2" class="node"><title>CincoChances2314509</title>
<polygon fill="#ffffff" stroke="none" points="342,-567 16,-567 16,-197 342,-197 342,-567"/>
<text text-anchor="start" x="21" y="-550.8" font-family="Times,serif" font-size="14.00">(C)CincoChances</text>
<text text-anchor="start" x="21" y="-527.8" font-family="Times,serif" font-size="14.00">&#45; &#160;&#160;arquivo: String [0..1]</text>
<text text-anchor="start" x="21" y="-504.8" font-family="Times,serif" font-size="14.00">&#45; &#160;&#160;banco: BancoDePalavras [0..1]</text>
<text text-anchor="start" x="21" y="-481.8" font-family="Times,serif" font-size="14.00">&#45; &#160;&#160;gameover: boolean [1]</text>
<text text-anchor="start" x="21" y="-458.8" font-family="Times,serif" font-size="14.00">&#45; &#160;&#160;passouDeFase: boolean [1]</text>
<text text-anchor="start" x="21" y="-435.8" font-family="Times,serif" font-size="14.00">&#45; &#160;&#160;pontos: int [1]</text>
<text text-anchor="start" x="21" y="-412.8" font-family="Times,serif" font-size="14.00">&#45; &#160;&#160;resultadoRespostaDavez: String [0..1]</text>
<text text-anchor="start" x="21" y="-389.8" font-family="Times,serif" font-size="14.00">&#45; &#160;&#160;tentativas: int [1]</text>
<text text-anchor="start" x="21" y="-366.8" font-family="Times,serif" font-size="14.00">+ acabouJogo(): Boolean</text>
<text text-anchor="start" x="21" y="-343.8" font-family="Times,serif" font-size="14.00">+ acertouResposta(): Boolean</text>
<text text-anchor="start" x="21" y="-320.8" font-family="Times,serif" font-size="14.00">+ instrucoes(): String</text>
<text text-anchor="start" x="21" y="-297.8" font-family="Times,serif" font-size="14.00">+ modoDeJogo(): String</text>
<text text-anchor="start" x="21" y="-274.8" font-family="Times,serif" font-size="14.00">+ palavraDaVez(): String</text>
<text text-anchor="start" x="21" y="-251.8" font-family="Times,serif" font-size="14.00">+ passouDeFase(): String</text>
<text text-anchor="start" x="21" y="-228.8" font-family="Times,serif" font-size="14.00">+ respostaDaVez(palavra: String, resposta: String): String</text>
<text text-anchor="start" x="21" y="-205.8" font-family="Times,serif" font-size="14.00">+ resultadoFinal(): String</text>
<polygon fill="black" stroke="black" points="16,-543 16,-543 342,-543 342,-543 16,-543"/>
<polygon fill="black" stroke="black" points="16,-382 16,-382 342,-382 342,-382 16,-382"/>
<polygon fill="none" stroke="black" points="16,-197 16,-567 342,-567 342,-197 16,-197"/>
</g>
<!-- CincoChances2314509&#45;&gt;BancoDePalavras136677366 -->
<g id="edge1" class="edge"><title>CincoChances2314509&#45;&gt;BancoDePalavras136677366</title>
<path fill="none" stroke="black" d="M342.234,-198.785C347.785,-192.589 351,-189 351,-189 351,-189 404.122,-150.394 451.321,-116.092"/>
<polygon fill="black" stroke="black" points="453.41,-118.9 459.442,-110.19 449.295,-113.238 453.41,-118.9"/>
<text text-anchor="middle" x="417.5" y="-167.8" font-family="Times,serif" font-size="14.00">banco</text>
<text text-anchor="middle" x="417.5" y="-152.8" font-family="Times,serif" font-size="14.00">[0..1]</text>
</g>
<!-- DeDezAcaba2314509 -->
<g id="node3" class="node"><title>DeDezAcaba2314509</title>
<polygon fill="#ffffff" stroke="none" points="686,-555.5 360,-555.5 360,-208.5 686,-208.5 686,-555.5"/>
<text text-anchor="start" x="365" y="-538.8" font-family="Times,serif" font-size="14.00">(C)DeDezAcaba</text>
<text text-anchor="start" x="365" y="-515.8" font-family="Times,serif" font-size="14.00">&#45; &#160;&#160;arquivo: String [0..1]</text>
<text text-anchor="start" x="365" y="-492.8" font-family="Times,serif" font-size="14.00">&#45; &#160;&#160;banco: BancoDePalavras [0..1]</text>
<text text-anchor="start" x="365" y="-469.8" font-family="Times,serif" font-size="14.00">&#45; &#160;&#160;passouDeFase: boolean [1]</text>
<text text-anchor="start" x="365" y="-446.8" font-family="Times,serif" font-size="14.00">&#45; &#160;&#160;pontos: int [1]</text>
<text text-anchor="start" x="365" y="-423.8" font-family="Times,serif" font-size="14.00">&#45; &#160;&#160;tentativas: int [1]</text>
<text text-anchor="start" x="365" y="-400.8" font-family="Times,serif" font-size="14.00">&#45; &#160;&#160;terminou: boolean [1]</text>
<text text-anchor="start" x="365" y="-377.8" font-family="Times,serif" font-size="14.00">+ acabouJogo(): Boolean</text>
<text text-anchor="start" x="365" y="-354.8" font-family="Times,serif" font-size="14.00">+ acertouResposta(): Boolean</text>
<text text-anchor="start" x="365" y="-331.8" font-family="Times,serif" font-size="14.00">+ instrucoes(): String</text>
<text text-anchor="start" x="365" y="-308.8" font-family="Times,serif" font-size="14.00">+ modoDeJogo(): String</text>
<text text-anchor="start" x="365" y="-285.8" font-family="Times,serif" font-size="14.00">+ palavraDaVez(): String</text>
<text text-anchor="start" x="365" y="-262.8" font-family="Times,serif" font-size="14.00">+ passouDeFase(): String</text>
<text text-anchor="start" x="365" y="-239.8" font-family="Times,serif" font-size="14.00">+ respostaDaVez(palavra: String, resposta: String): String</text>
<text text-anchor="start" x="365" y="-216.8" font-family="Times,serif" font-size="14.00">+ resultadoFinal(): String</text>
<polygon fill="black" stroke="black" points="360,-531 360,-531 686,-531 686,-531 360,-531"/>
<polygon fill="black" stroke="black" points="360,-393 360,-393 686,-393 686,-393 360,-393"/>
<polygon fill="none" stroke="black" points="360,-208.5 360,-555.5 686,-555.5 686,-208.5 360,-208.5"/>
</g>
<!-- DeDezAcaba2314509&#45;&gt;BancoDePalavras136677366 -->
<g id="edge2" class="edge"><title>DeDezAcaba2314509&#45;&gt;BancoDePalavras136677366</title>
<path fill="none" stroke="black" d="M523,-208.123C523,-176.289 523,-145.234 523,-120.154"/>
<polygon fill="black" stroke="black" points="526.5,-120.141 523,-110.141 519.5,-120.141 526.5,-120.141"/>
<text text-anchor="middle" x="539.5" y="-167.8" font-family="Times,serif" font-size="14.00">banco</text>
<text text-anchor="middle" x="539.5" y="-152.8" font-family="Times,serif" font-size="14.00">[0..1]</text>
</g>
<!-- ErrouAcabou2314509 -->
<g id="node4" class="node"><title>ErrouAcabou2314509</title>
<polygon fill="#ffffff" stroke="none" points="1030,-555.5 704,-555.5 704,-208.5 1030,-208.5 1030,-555.5"/>
<text text-anchor="start" x="709" y="-538.8" font-family="Times,serif" font-size="14.00">(C)ErrouAcabou</text>
<text text-anchor="start" x="709" y="-515.8" font-family="Times,serif" font-size="14.00">&#45; &#160;&#160;arquivo: String [0..1]</text>
<text text-anchor="start" x="709" y="-492.8" font-family="Times,serif" font-size="14.00">&#45; &#160;&#160;banco: BancoDePalavras [0..1]</text>
<text text-anchor="start" x="709" y="-469.8" font-family="Times,serif" font-size="14.00">&#45; &#160;&#160;errou: boolean [1]</text>
<text text-anchor="start" x="709" y="-446.8" font-family="Times,serif" font-size="14.00">&#45; &#160;&#160;pontos: int [1]</text>
<text text-anchor="start" x="709" y="-423.8" font-family="Times,serif" font-size="14.00">&#45; &#160;&#160;resultadoRespostaDavez: String [0..1]</text>
<text text-anchor="start" x="709" y="-400.8" font-family="Times,serif" font-size="14.00">&#45; &#160;&#160;tentativas: int [1]</text>
<text text-anchor="start" x="709" y="-377.8" font-family="Times,serif" font-size="14.00">+ acabouJogo(): Boolean</text>
<text text-anchor="start" x="709" y="-354.8" font-family="Times,serif" font-size="14.00">+ acertouResposta(): Boolean</text>
<text text-anchor="start" x="709" y="-331.8" font-family="Times,serif" font-size="14.00">+ instrucoes(): String</text>
<text text-anchor="start" x="709" y="-308.8" font-family="Times,serif" font-size="14.00">+ modoDeJogo(): String</text>
<text text-anchor="start" x="709" y="-285.8" font-family="Times,serif" font-size="14.00">+ palavraDaVez(): String</text>
<text text-anchor="start" x="709" y="-262.8" font-family="Times,serif" font-size="14.00">+ passouDeFase(): String</text>
<text text-anchor="start" x="709" y="-239.8" font-family="Times,serif" font-size="14.00">+ respostaDaVez(palavra: String, resposta: String): String</text>
<text text-anchor="start" x="709" y="-216.8" font-family="Times,serif" font-size="14.00">+ resultadoFinal(): String</text>
<polygon fill="black" stroke="black" points="704,-531 704,-531 1030,-531 1030,-531 704,-531"/>
<polygon fill="black" stroke="black" points="704,-393 704,-393 1030,-393 1030,-393 704,-393"/>
<polygon fill="none" stroke="black" points="704,-208.5 704,-555.5 1030,-555.5 1030,-208.5 704,-208.5"/>
</g>
<!-- ErrouAcabou2314509&#45;&gt;BancoDePalavras136677366 -->
<g id="edge3" class="edge"><title>ErrouAcabou2314509&#45;&gt;BancoDePalavras136677366</title>
<path fill="none" stroke="black" d="M712.439,-208.467C701.693,-196.471 695,-189 695,-189 695,-189 641.878,-150.394 594.679,-116.092"/>
<polygon fill="black" stroke="black" points="596.705,-113.238 586.558,-110.19 592.59,-118.9 596.705,-113.238"/>
<text text-anchor="middle" x="696.5" y="-167.8" font-family="Times,serif" font-size="14.00">banco</text>
<text text-anchor="middle" x="696.5" y="-152.8" font-family="Times,serif" font-size="14.00">[0..1]</text>
</g>
<!-- MecanicaDoJogo2314509 -->
<g id="node5" class="node"><title>MecanicaDoJogo2314509</title>
<polygon fill="#f1e5fd" stroke="none" points="686,-813 360,-813 360,-604 686,-604 686,-813"/>
<text text-anchor="start" x="365" y="-796.3" font-family="Times,serif" font-size="14.00">(I)MecanicaDoJogo</text>
<text text-anchor="start" x="365" y="-773.3" font-family="Times,serif" font-size="14.00">+ acabouJogo(): Boolean</text>
<text text-anchor="start" x="365" y="-750.3" font-family="Times,serif" font-size="14.00">+ acertouResposta(): Boolean</text>
<text text-anchor="start" x="365" y="-727.3" font-family="Times,serif" font-size="14.00">+ instrucoes(): String</text>
<text text-anchor="start" x="365" y="-704.3" font-family="Times,serif" font-size="14.00">+ modoDeJogo(): String</text>
<text text-anchor="start" x="365" y="-681.3" font-family="Times,serif" font-size="14.00">+ palavraDaVez(): String</text>
<text text-anchor="start" x="365" y="-658.3" font-family="Times,serif" font-size="14.00">+ passouDeFase(): String</text>
<text text-anchor="start" x="365" y="-635.3" font-family="Times,serif" font-size="14.00">+ respostaDaVez(palavra: String, resposta: String): String</text>
<text text-anchor="start" x="365" y="-612.3" font-family="Times,serif" font-size="14.00">+ resultadoFinal(): String</text>
<polygon fill="black" stroke="black" points="360,-788.5 360,-788.5 686,-788.5 686,-788.5 360,-788.5"/>
<polygon fill="none" stroke="black" points="360,-604 360,-813 686,-813 686,-604 360,-604"/>
</g>
<!-- MecanicaDoJogo2314509&#45;&gt;CincoChances2314509 -->
<g id="edge4" class="edge"><title>MecanicaDoJogo2314509&#45;&gt;CincoChances2314509</title>
<path fill="none" stroke="black" d="M388.262,-597.438C366.532,-579.688 351,-567 351,-567 351,-567 347.785,-563.561 342.234,-557.622"/>
<polygon fill="none" stroke="black" points="386.232,-600.299 396.191,-603.915 390.661,-594.878 386.232,-600.299"/>
</g>
<!-- MecanicaDoJogo2314509&#45;&gt;DeDezAcaba2314509 -->
<g id="edge5" class="edge"><title>MecanicaDoJogo2314509&#45;&gt;DeDezAcaba2314509</title>
<path fill="none" stroke="black" d="M523,-593.659C523,-581.303 523,-568.534 523,-555.678"/>
<polygon fill="none" stroke="black" points="519.5,-593.934 523,-603.934 526.5,-593.934 519.5,-593.934"/>
</g>
<!-- MecanicaDoJogo2314509&#45;&gt;ErrouAcabou2314509 -->
<g id="edge6" class="edge"><title>MecanicaDoJogo2314509&#45;&gt;ErrouAcabou2314509</title>
<path fill="none" stroke="black" d="M657.738,-597.438C679.468,-579.688 695,-567 695,-567 695,-567 698.89,-562.838 705.5,-555.767"/>
<polygon fill="none" stroke="black" points="655.339,-594.878 649.809,-603.915 659.768,-600.299 655.339,-594.878"/>
</g>
</g>
</svg>
